Marlette-Block-Master.ufo
<glyph name="ampersand" format="2">
  <advance width="871"/>
  <unicode hex="0026"/>
  <guideline x="212" y="373" angle="0" identifier="3GWXehLFs8"/>
  <outline>
    <contour>
      <point x="633" y="248" type="curve"/>
      <point x="609" y="256" type="line"/>
      <point x="643" y="306"/>
      <point x="666" y="396"/>
      <point x="594" y="396" type="curve"/>
      <point x="594" y="640" type="line"/>
      <point x="831" y="640" type="line"/>
      <point x="831" y="396" type="line"/>
      <point x="704" y="396"/>
      <point x="633" y="248"/>
    </contour>
    <contour>
      <point x="661" y="247" type="curve" smooth="yes"/>
      <point x="713" y="247"/>
      <point x="808" y="260"/>
      <point x="808" y="298" type="curve"/>
      <point x="831" y="298" type="line"/>
      <point x="831" y="197"/>
      <point x="832" y="-5"/>
      <point x="658" y="-5" type="curve" smooth="yes"/>
      <point x="508" y="-5"/>
      <point x="133" y="416"/>
      <point x="133" y="567" type="qcurve"/>
      <point x="133" y="671"/>
      <point x="208" y="765"/>
      <point x="351" y="765" type="curve" smooth="yes"/>
      <point x="454" y="765"/>
      <point x="565" y="658"/>
      <point x="565" y="571" type="qcurve" smooth="yes"/>
      <point x="565" y="430"/>
      <point x="468" y="373"/>
      <point x="412" y="373" type="curve"/>
      <point x="412" y="392" type="line"/>
      <point x="427" y="392"/>
      <point x="471" y="409"/>
      <point x="471" y="444" type="curve" smooth="yes"/>
      <point x="471" y="466"/>
      <point x="456" y="487"/>
      <point x="431" y="487" type="curve" smooth="yes"/>
      <point x="406" y="487"/>
      <point x="394" y="470"/>
      <point x="394" y="444" type="curve" smooth="yes"/>
      <point x="394" y="390"/>
      <point x="586" y="247"/>
    </contour>
    <contour>
      <point x="217" y="373" type="curve"/>
      <point x="263" y="373" type="line"/>
      <point x="263" y="355" type="line"/>
      <point x="236" y="355" type="line" smooth="yes"/>
      <point x="191" y="355"/>
      <point x="143" y="332"/>
      <point x="143" y="294" type="curve" smooth="yes"/>
      <point x="143" y="258"/>
      <point x="166" y="243"/>
      <point x="191" y="243" type="curve" smooth="yes"/>
      <point x="214" y="243"/>
      <point x="226" y="252"/>
      <point x="226" y="267" type="curve"/>
      <point x="242" y="267" type="line"/>
      <point x="319" y="174" type="line" smooth="yes"/>
      <point x="367" y="116"/>
      <point x="281" y="-5"/>
      <point x="179" y="-5" type="curve" smooth="yes"/>
      <point x="93" y="-5"/>
      <point x="-19" y="46"/>
      <point x="-19" y="195" type="curve" smooth="yes"/>
      <point x="-19" y="303"/>
      <point x="71" y="373"/>
    </contour>
  </outline>
</glyph>
<glyph name="quotesingle" format="2">
  <advance width="179"/>
  <unicode hex="0027"/>
  <guideline x="553" y="465" angle="0" identifier="p5rvRqm6sm"/>
  <outline>
    <contour>
      <point x="90" y="465" type="line"/>
      <point x="98" y="555"/>
      <point x="139" y="750"/>
      <point x="139" y="750" type="curve"/>
      <point x="139" y="750"/>
      <point x="0" y="750"/>
      <point x="0" y="750" type="curve" smooth="yes"/>
      <point x="0" y="750"/>
      <point x="41" y="555"/>
      <point x="49" y="465" type="curve"/>
    </contour>
  </outline>
</glyph>
<glyph name="asterisk" format="2">
  <advance width="698"/>
  <unicode hex="002A"/>
  <outline>
    <contour>
      <point x="317" y="410" type="curve"/>
      <point x="322" y="401" type="line"/>
      <point x="331" y="396" type="line"/>
      <point x="343" y="402" type="line"/>
      <point x="343" y="409" type="line"/>
      <point x="336" y="422" type="line"/>
      <point x="336" y="422"/>
      <point x="343" y="409"/>
      <point x="335" y="403" type="curve" smooth="yes"/>
      <point x="328" y="398"/>
      <point x="321" y="405"/>
    </contour>
    <contour>
      <point x="383" y="410" type="line"/>
      <point x="379" y="405"/>
      <point x="373" y="398"/>
      <point x="366" y="403" type="curve" smooth="yes"/>
      <point x="358" y="409"/>
      <point x="365" y="422"/>
      <point x="365" y="422" type="curve"/>
      <point x="358" y="409" type="line"/>
      <point x="358" y="402" type="line"/>
      <point x="370" y="395" type="line"/>
      <point x="379" y="401" type="line"/>
    </contour>
    <contour>
      <point x="384" y="340" type="curve"/>
      <point x="379" y="349" type="line"/>
      <point x="370" y="356" type="line"/>
      <point x="358" y="348" type="line"/>
      <point x="358" y="341" type="line"/>
      <point x="365" y="328" type="line"/>
      <point x="365" y="328"/>
      <point x="358" y="341"/>
      <point x="366" y="347" type="curve" smooth="yes"/>
      <point x="373" y="352"/>
      <point x="380" y="345"/>
    </contour>
    <contour>
      <point x="316" y="340" type="line"/>
      <point x="320" y="345"/>
      <point x="328" y="352"/>
      <point x="335" y="347" type="curve" smooth="yes"/>
      <point x="343" y="341"/>
      <point x="336" y="328"/>
      <point x="336" y="328" type="curve"/>
      <point x="343" y="341" type="line"/>
      <point x="343" y="348" type="line"/>
      <point x="331" y="354" type="line"/>
      <point x="322" y="349" type="line"/>
    </contour>
    <contour>
      <point x="396" y="385" type="curve"/>
      <point x="386" y="387" type="line"/>
      <point x="377" y="382" type="line"/>
      <point x="375" y="369" type="line"/>
      <point x="380" y="363" type="line"/>
      <point x="395" y="365" type="line"/>
      <point x="395" y="365"/>
      <point x="380" y="366"/>
      <point x="380" y="375" type="curve" smooth="yes"/>
      <point x="380" y="385"/>
      <point x="390" y="384"/>
    </contour>
    <contour>
      <point x="305" y="386" type="line"/>
      <point x="311" y="385"/>
      <point x="321" y="385"/>
      <point x="321" y="375" type="curve" smooth="yes"/>
      <point x="321" y="366"/>
      <point x="306" y="364"/>
      <point x="306" y="364" type="curve"/>
      <point x="321" y="363" type="line"/>
      <point x="326" y="369" type="line"/>
      <point x="324" y="382" type="line"/>
      <point x="315" y="387" type="line"/>
    </contour>
    <component base="sym_asteriskbar" xScale="0.49293371366137" xyScale="0.8700668675084767" yxScale="-0.8700668675084767" yScale="0.49293371366137" xOffset="679" yOffset="109"/>
    <component base="sym_asteriskbar" xOffset="281" yOffset="-43"/>
    <component base="sym_asteriskbar" xScale="0.4906959872685116" xyScale="-0.8713308488046214" yxScale="0.8713308488046214" yScale="0.4906959872685116" xOffset="-49" yOffset="230"/>
  </outline>
</glyph>
<glyph name="two" format="2">
  <advance width="577"/>
  <unicode hex="0032"/>
  <outline>
    <contour>
      <point x="408" y="325" type="line"/>
      <point x="408" y="311" type="line" smooth="yes"/>
      <point x="408" y="262"/>
      <point x="383" y="247"/>
      <point x="334" y="247" type="curve" smooth="yes"/>
      <point x="147" y="247" type="line"/>
      <point x="147" y="317"/>
      <point x="501" y="339"/>
      <point x="534" y="531" type="curve" smooth="yes"/>
      <point x="554" y="648"/>
      <point x="485" y="761"/>
      <point x="320" y="761" type="curve" smooth="yes"/>
      <point x="248" y="761"/>
      <point x="199" y="745"/>
      <point x="183" y="736" type="curve"/>
      <point x="117" y="771"/>
      <point x="42" y="759"/>
      <point x="12" y="750" type="curve"/>
      <point x="12" y="407" type="line"/>
      <point x="79" y="407" type="line"/>
      <point x="79" y="407"/>
      <point x="107" y="506"/>
      <point x="260" y="506" type="curve" smooth="yes"/>
      <point x="304" y="506"/>
      <point x="338" y="493"/>
      <point x="338" y="465" type="curve"/>
      <point x="338" y="395"/>
      <point x="0" y="390"/>
      <point x="0" y="117" type="curve"/>
      <point x="0" y="-1" type="line"/>
      <point x="181" y="-1" type="line"/>
      <point x="183" y="28"/>
      <point x="199" y="43"/>
      <point x="223" y="44" type="curve"/>
      <point x="278" y="44"/>
      <point x="285" y="-12"/>
      <point x="380" y="-12" type="curve"/>
      <point x="438" y="-11"/>
      <point x="493" y="5"/>
      <point x="536" y="36" type="curve"/>
      <point x="536" y="325" type="line"/>
    </contour>
  </outline>
</glyph>
<glyph name="three" format="2">
  <advance width="609"/>
  <unicode hex="0033"/>
  <outline>
    <contour>
      <point x="64" y="373" type="curve"/>
      <point x="0" y="373" type="line"/>
      <point x="0" y="140" type="line"/>
      <point x="21" y="76"/>
      <point x="143" y="-10"/>
      <point x="275" y="-10" type="curve" smooth="yes"/>
      <point x="440" y="-10"/>
      <point x="589" y="86"/>
      <point x="589" y="224" type="curve" smooth="yes"/>
      <point x="589" y="397"/>
      <point x="467" y="408"/>
      <point x="386" y="408" type="curve"/>
      <point x="386" y="429" type="line"/>
      <point x="479" y="429"/>
      <point x="559" y="530"/>
      <point x="562" y="642" type="curve" smooth="yes"/>
      <point x="565" y="750" type="line"/>
      <point x="384" y="750" type="line"/>
      <point x="382" y="721"/>
      <point x="366" y="715"/>
      <point x="342" y="715" type="curve" smooth="yes"/>
      <point x="287" y="715"/>
      <point x="260" y="762"/>
      <point x="165" y="762" type="curve" smooth="yes"/>
      <point x="107" y="762"/>
      <point x="43" y="745"/>
      <point x="0" y="714" type="curve"/>
      <point x="0" y="434" type="line"/>
      <point x="128" y="434" type="line"/>
      <point x="128" y="448" type="line" smooth="yes"/>
      <point x="128" y="497"/>
      <point x="187" y="533"/>
      <point x="255" y="533" type="curve" smooth="yes"/>
      <point x="305" y="533"/>
      <point x="369" y="509"/>
      <point x="369" y="482" type="curve"/>
      <point x="369" y="399"/>
      <point x="156" y="409"/>
      <point x="156" y="409" type="curve"/>
      <point x="156" y="346" type="line"/>
      <point x="157" y="345"/>
      <point x="167" y="345"/>
      <point x="255" y="345" type="curve"/>
      <point x="308" y="345"/>
      <point x="369" y="324"/>
      <point x="369" y="295" type="curve" smooth="yes"/>
      <point x="369" y="269"/>
      <point x="353" y="245"/>
      <point x="255" y="245" type="curve" smooth="yes"/>
      <point x="97" y="245"/>
      <point x="64" y="317"/>
    </contour>
  </outline>
</glyph>
<glyph name="four" format="2">
  <advance width="659"/>
  <unicode hex="0034"/>
  <outline>
    <contour>
      <point x="0" y="324" type="line"/>
      <point x="477" y="324" type="line"/>
      <point x="477" y="408" type="line"/>
      <point x="0" y="408" type="line"/>
    </contour>
    <contour>
      <point x="185" y="0" type="line"/>
      <point x="619" y="0" type="line"/>
      <point x="619" y="247" type="line"/>
      <point x="556" y="247"/>
      <point x="497" y="263"/>
      <point x="497" y="361" type="curve" smooth="yes"/>
      <point x="497" y="388" type="line" smooth="yes"/>
      <point x="497" y="486"/>
      <point x="556" y="502"/>
      <point x="619" y="502" type="curve"/>
      <point x="619" y="750" type="line"/>
      <point x="455" y="750"/>
      <point x="341" y="636"/>
      <point x="341" y="472" type="curve" smooth="yes"/>
      <point x="341" y="300" type="line" smooth="yes"/>
      <point x="341" y="269"/>
      <point x="279" y="248"/>
      <point x="185" y="249" type="curve"/>
    </contour>
    <contour>
      <point x="0" y="408" type="curve"/>
      <point x="90" y="324" type="line"/>
      <point x="422" y="726" type="line"/>
      <point x="422" y="750" type="line"/>
      <point x="347" y="767"/>
      <point x="274" y="763"/>
      <point x="203" y="736" type="curve"/>
      <point x="153" y="762"/>
      <point x="96" y="766"/>
      <point x="34" y="750" type="curve"/>
      <point x="1" y="502" type="line"/>
      <point x="165" y="502" type="line"/>
      <point x="121" y="444"/>
      <point x="63" y="408"/>
    </contour>
  </outline>
</glyph>
<glyph name="six" format="2">
  <advance width="637"/>
  <unicode hex="0036"/>
  <outline>
    <contour>
      <point x="0" y="373" type="curve"/>
      <point x="0" y="74"/>
      <point x="131" y="-10"/>
      <point x="311" y="-10" type="curve" smooth="yes"/>
      <point x="449" y="-10"/>
      <point x="597" y="95"/>
      <point x="597" y="234" type="curve" smooth="yes"/>
      <point x="597" y="358"/>
      <point x="488" y="455"/>
      <point x="315" y="446" type="curve" smooth="yes"/>
      <point x="251" y="443"/>
      <point x="212" y="410"/>
      <point x="206" y="399" type="curve"/>
      <point x="186" y="399" type="line"/>
      <point x="186" y="482"/>
      <point x="229" y="533"/>
      <point x="319" y="533" type="curve" smooth="yes"/>
      <point x="370" y="533"/>
      <point x="433" y="511"/>
      <point x="448" y="465" type="curve"/>
      <point x="575" y="465" type="line"/>
      <point x="575" y="750" type="line"/>
      <point x="425" y="750" type="line"/>
      <point x="425" y="718" type="line"/>
      <point x="466" y="668"/>
      <point x="495" y="602"/>
      <point x="495" y="526" type="curve"/>
      <point x="474" y="526" type="line"/>
      <point x="474" y="549"/>
      <point x="444" y="760"/>
      <point x="280" y="760" type="curve" smooth="yes"/>
      <point x="219" y="760"/>
      <point x="0" y="748"/>
    </contour>
    <contour>
      <point x="294" y="243" type="qcurve"/>
      <point x="263" y="243"/>
      <point x="221" y="285"/>
      <point x="221" y="317" type="qcurve" smooth="yes"/>
      <point x="221" y="348"/>
      <point x="263" y="390"/>
      <point x="294" y="390" type="qcurve" smooth="yes"/>
      <point x="323" y="390"/>
      <point x="365" y="348"/>
      <point x="365" y="317" type="qcurve" smooth="yes"/>
      <point x="365" y="285"/>
      <point x="323" y="243"/>
    </contour>
  </outline>
</glyph>
<glyph name="seven" format="2">
  <advance width="556"/>
  <unicode hex="0037"/>
  <outline>
    <contour>
      <point x="536" y="489" type="line"/>
      <point x="536" y="760" type="line"/>
      <point x="355" y="760" type="line"/>
      <point x="353" y="731"/>
      <point x="337" y="715"/>
      <point x="313" y="715" type="curve" smooth="yes"/>
      <point x="258" y="715"/>
      <point x="251" y="771"/>
      <point x="156" y="771" type="curve" smooth="yes"/>
      <point x="98" y="771"/>
      <point x="43" y="754"/>
      <point x="0" y="723" type="curve"/>
      <point x="0" y="434" type="line"/>
      <point x="128" y="434" type="line"/>
      <point x="128" y="448" type="line" smooth="yes"/>
      <point x="128" y="497"/>
      <point x="187" y="503"/>
      <point x="255" y="503" type="curve"/>
      <point x="536" y="503" type="line"/>
    </contour>
    <contour>
      <point x="50" y="247" type="line"/>
      <point x="50" y="-1" type="line"/>
      <point x="488" y="-1" type="line"/>
      <point x="488" y="247" type="line"/>
    </contour>
    <contour>
      <point x="536" y="485" type="curve"/>
      <point x="536" y="557" type="line"/>
      <point x="426" y="503" type="line"/>
      <point x="426" y="485" type="line"/>
      <point x="163" y="485"/>
      <point x="177" y="236"/>
      <point x="177" y="236" type="curve"/>
      <point x="364" y="236" type="line"/>
      <point x="364" y="236"/>
      <point x="354" y="485"/>
    </contour>
  </outline>
</glyph>
<glyph name="nine" format="2">
  <advance width="637"/>
  <unicode hex="0039"/>
  <outline>
    <contour>
      <point x="597" y="377" type="curve"/>
      <point x="597" y="676"/>
      <point x="466" y="760"/>
      <point x="286" y="760" type="curve" smooth="yes"/>
      <point x="148" y="760"/>
      <point x="0" y="655"/>
      <point x="0" y="516" type="curve" smooth="yes"/>
      <point x="0" y="392"/>
      <point x="109" y="295"/>
      <point x="282" y="304" type="curve" smooth="yes"/>
      <point x="346" y="307"/>
      <point x="385" y="340"/>
      <point x="391" y="351" type="curve"/>
      <point x="411" y="351" type="line"/>
      <point x="411" y="268"/>
      <point x="368" y="217"/>
      <point x="278" y="217" type="curve" smooth="yes"/>
      <point x="227" y="217"/>
      <point x="164" y="239"/>
      <point x="149" y="285" type="curve"/>
      <point x="22" y="285" type="line"/>
      <point x="22" y="0" type="line"/>
      <point x="172" y="0" type="line"/>
      <point x="172" y="32" type="line"/>
      <point x="131" y="82"/>
      <point x="102" y="148"/>
      <point x="102" y="224" type="curve"/>
      <point x="123" y="224" type="line"/>
      <point x="123" y="201"/>
      <point x="153" y="-10"/>
      <point x="317" y="-10" type="curve" smooth="yes"/>
      <point x="378" y="-10"/>
      <point x="597" y="2"/>
    </contour>
    <contour>
      <point x="303" y="507" type="qcurve"/>
      <point x="334" y="507"/>
      <point x="376" y="465"/>
      <point x="376" y="433" type="qcurve" smooth="yes"/>
      <point x="376" y="402"/>
      <point x="334" y="360"/>
      <point x="303" y="360" type="qcurve" smooth="yes"/>
      <point x="274" y="360"/>
      <point x="232" y="402"/>
      <point x="232" y="433" type="qcurve" smooth="yes"/>
      <point x="232" y="465"/>
      <point x="274" y="507"/>
    </contour>
  </outline>
</glyph>
<glyph name="equal" format="2">
  <advance width="452"/>
  <unicode hex="003D"/>
  <outline>
    <contour>
      <point x="412" y="426" type="curve"/>
      <point x="412" y="458" type="line"/>
      <point x="359" y="456"/>
      <point x="265" y="456"/>
      <point x="193" y="456" type="curve" smooth="yes"/>
      <point x="123" y="456"/>
      <point x="91" y="456"/>
      <point x="0" y="458" type="curve"/>
      <point x="0" y="426" type="line"/>
      <point x="91" y="428"/>
      <point x="123" y="428"/>
      <point x="193" y="428" type="curve" smooth="yes"/>
      <point x="265" y="428"/>
      <point x="359" y="428"/>
    </contour>
    <contour>
      <point x="412" y="296" type="curve"/>
      <point x="412" y="328" type="line"/>
      <point x="359" y="326"/>
      <point x="265" y="326"/>
      <point x="193" y="326" type="curve" smooth="yes"/>
      <point x="123" y="326"/>
      <point x="91" y="326"/>
      <point x="0" y="328" type="curve"/>
      <point x="0" y="296" type="line"/>
      <point x="91" y="298"/>
      <point x="123" y="298"/>
      <point x="193" y="298" type="curve" smooth="yes"/>
      <point x="265" y="298"/>
      <point x="359" y="298"/>
    </contour>
  </outline>
</glyph>
<glyph name="B" format="2">
  <advance width="689"/>
  <unicode hex="0042"/>
  <outline>
    <contour>
      <point x="0" y="-1" type="line"/>
      <point x="217" y="-1" type="line"/>
      <point x="221" y="28"/>
      <point x="234" y="45"/>
      <point x="263" y="45" type="curve"/>
      <point x="318" y="45"/>
      <point x="365" y="-11"/>
      <point x="480" y="-11" type="curve"/>
      <point x="606" y="-11"/>
      <point x="669" y="77"/>
      <point x="669" y="201" type="curve" smooth="yes"/>
      <point x="669" y="290"/>
      <point x="633" y="352"/>
      <point x="574" y="386" type="curve"/>
      <point x="610" y="420"/>
      <point x="631" y="471"/>
      <point x="631" y="538" type="curve" smooth="yes"/>
      <point x="631" y="662"/>
      <point x="568" y="750"/>
      <point x="442" y="750" type="curve" smooth="yes"/>
      <point x="35" y="750" type="line"/>
      <point x="2" y="502" type="line"/>
      <point x="65" y="502"/>
      <point x="159" y="486"/>
      <point x="159" y="388" type="curve" smooth="yes"/>
      <point x="159" y="361" type="line" smooth="yes"/>
      <point x="159" y="263"/>
      <point x="63" y="247"/>
      <point x="0" y="247" type="curve"/>
    </contour>
    <contour>
      <point x="413" y="502" type="line" smooth="yes"/>
      <point x="488" y="502"/>
      <point x="487" y="414"/>
      <point x="414" y="414" type="curve" smooth="yes"/>
      <point x="252" y="414" type="line"/>
      <point x="252" y="502" type="line"/>
    </contour>
    <contour>
      <point x="453" y="247" type="curve" smooth="yes"/>
      <point x="252" y="247" type="line"/>
      <point x="252" y="332" type="line"/>
      <point x="454" y="332" type="line" smooth="yes"/>
      <point x="527" y="332"/>
      <point x="528" y="247"/>
    </contour>
  </outline>
</glyph>
<glyph name="D" format="2">
  <advance width="670"/>
  <unicode hex="0044"/>
  <outline>
    <contour>
      <point x="0" y="-1" type="line"/>
      <point x="180" y="-1" type="line"/>
      <point x="184" y="28"/>
      <point x="197.0" y="45.0"/>
      <point x="226" y="45" type="curve" smooth="yes"/>
      <point x="281.0" y="45.0"/>
      <point x="288.0" y="-11.0"/>
      <point x="403" y="-11" type="curve" smooth="yes"/>
      <point x="529.0" y="-11.0"/>
      <point x="630" y="150"/>
      <point x="630" y="375" type="curve" smooth="yes"/>
      <point x="630" y="617"/>
      <point x="559.0" y="750.0"/>
      <point x="365" y="750" type="curve" smooth="yes"/>
      <point x="35" y="750" type="line"/>
      <point x="2" y="502" type="line"/>
      <point x="65" y="502"/>
      <point x="122.0" y="486.0"/>
      <point x="122" y="388" type="curve" smooth="yes"/>
      <point x="122" y="361" type="line" smooth="yes"/>
      <point x="122.0" y="263.0"/>
      <point x="63" y="247"/>
      <point x="0" y="247" type="curve"/>
    </contour>
    <contour>
      <point x="336" y="247" type="curve" smooth="yes"/>
      <point x="276" y="247" type="line" smooth="yes"/>
      <point x="240.0" y="247.0"/>
      <point x="215.0" y="272.0"/>
      <point x="215" y="308" type="curve" smooth="yes"/>
      <point x="215" y="502" type="line"/>
      <point x="327" y="502" type="line" smooth="yes"/>
      <point x="395.0" y="502.0"/>
      <point x="432.0" y="476.0"/>
      <point x="432" y="375" type="curve" smooth="yes"/>
      <point x="432.0" y="279.0"/>
      <point x="394.0" y="247.0"/>
    </contour>
  </outline>
</glyph>
<glyph name="E" format="2">
  <advance width="596"/>
  <unicode hex="0045"/>
  <outline>
    <contour>
      <point x="428" y="325" type="line"/>
      <point x="428" y="311" type="line" smooth="yes"/>
      <point x="428" y="262"/>
      <point x="403" y="247"/>
      <point x="354" y="247" type="curve" smooth="yes"/>
      <point x="156" y="247" type="line"/>
      <point x="198" y="205" type="line"/>
      <point x="198" y="338" type="line"/>
      <point x="356" y="298" type="line"/>
      <point x="356" y="408" type="line"/>
      <point x="264" y="408" type="line" smooth="yes"/>
      <point x="173" y="408"/>
      <point x="174" y="551"/>
      <point x="265" y="551" type="curve" smooth="yes"/>
      <point x="309" y="551"/>
      <point x="341" y="524"/>
      <point x="349" y="461" type="curve"/>
      <point x="556" y="461" type="line"/>
      <point x="556" y="750" type="line"/>
      <point x="30" y="750" type="line"/>
      <point x="0" y="501" type="line"/>
      <point x="105" y="501" type="line"/>
      <point x="105" y="311" type="line" smooth="yes"/>
      <point x="105" y="264"/>
      <point x="88" y="247"/>
      <point x="41" y="247" type="curve" smooth="yes"/>
      <point x="0" y="247" type="line"/>
      <point x="0" y="-1" type="line"/>
      <point x="181" y="-1" type="line"/>
      <point x="183" y="28"/>
      <point x="199" y="43"/>
      <point x="223" y="44" type="curve"/>
      <point x="278" y="44"/>
      <point x="293" y="-12"/>
      <point x="400" y="-12" type="curve"/>
      <point x="458" y="-11"/>
      <point x="513" y="5"/>
      <point x="556" y="36" type="curve"/>
      <point x="556" y="325" type="line"/>
    </contour>
  </outline>
</glyph>
<glyph name="H" format="2">
  <advance width="700"/>
  <unicode hex="0048"/>
  <outline>
    <contour>
      <point x="178" y="324" type="line"/>
      <point x="518" y="324" type="line"/>
      <point x="518" y="406" type="line"/>
      <point x="178" y="406" type="line"/>
    </contour>
    <contour>
      <point x="255" y="335" type="curve"/>
      <point x="255" y="750" type="line"/>
      <point x="35" y="750" type="line"/>
      <point x="2" y="502" type="line"/>
      <point x="65" y="502"/>
      <point x="162" y="486"/>
      <point x="162" y="388" type="curve" smooth="yes"/>
      <point x="162" y="361" type="line" smooth="yes"/>
      <point x="162" y="263"/>
      <point x="63" y="247"/>
      <point x="0" y="247" type="curve"/>
      <point x="0" y="-1" type="line"/>
      <point x="64" y="-1"/>
      <point x="247" y="29"/>
    </contour>
    <contour>
      <point x="336" y="0" type="line"/>
      <point x="660" y="0" type="line"/>
      <point x="660" y="247" type="line"/>
      <point x="597" y="247"/>
      <point x="538" y="263"/>
      <point x="538" y="361" type="curve" smooth="yes"/>
      <point x="538" y="388" type="line" smooth="yes"/>
      <point x="538" y="486"/>
      <point x="597" y="502"/>
      <point x="660" y="502" type="curve"/>
      <point x="660" y="750" type="line"/>
      <point x="382" y="750" type="line"/>
      <point x="382" y="300" type="line"/>
      <point x="382" y="275"/>
      <point x="365" y="249"/>
      <point x="336" y="249" type="curve"/>
    </contour>
  </outline>
</glyph>
<glyph name="I" format="2">
  <advance width="378"/>
  <unicode hex="0049"/>
  <outline>
    <contour>
      <point x="215" y="414"/>
      <point x="122" y="414"/>
      <point x="122" y="414" type="curve"/>
      <point x="122" y="361" type="line" smooth="yes"/>
      <point x="122" y="263"/>
      <point x="63" y="247"/>
      <point x="0" y="247" type="curve"/>
      <point x="0" y="-1" type="line"/>
      <point x="338" y="-1" type="line"/>
      <point x="338" y="247" type="line"/>
      <point x="275" y="247"/>
      <point x="215" y="263"/>
      <point x="215" y="361" type="curve" smooth="yes"/>
      <point x="215" y="414" type="line"/>
    </contour>
    <contour>
      <point x="122" y="335"/>
      <point x="215" y="335"/>
      <point x="215" y="335" type="curve"/>
      <point x="215" y="388" type="line" smooth="yes"/>
      <point x="215" y="486"/>
      <point x="275" y="502"/>
      <point x="338" y="502" type="curve"/>
      <point x="338" y="750" type="line"/>
      <point x="35" y="750" type="line"/>
      <point x="2" y="502" type="line"/>
      <point x="65" y="502"/>
      <point x="122" y="486"/>
      <point x="122" y="388" type="curve" smooth="yes"/>
      <point x="122" y="335" type="line"/>
    </contour>
  </outline>
</glyph>
<glyph name="M" format="2">
  <advance width="888"/>
  <unicode hex="004D"/>
  <guideline x="464.0" y="0" angle="90.0" identifier="a10sknmzQ0"/>
  <outline>
    <contour>
      <point x="214" y="484" type="curve"/>
      <point x="176" y="473" type="line"/>
      <point x="363" y="338" type="line"/>
      <point x="504" y="496" type="line"/>
      <point x="196" y="750" type="line"/>
      <point x="35" y="750" type="line"/>
      <point x="2" y="502" type="line"/>
      <point x="65" y="502"/>
      <point x="122.0" y="486.0"/>
      <point x="122" y="388" type="curve" smooth="yes"/>
      <point x="122" y="361" type="line" smooth="yes"/>
      <point x="122.0" y="263.0"/>
      <point x="63" y="247"/>
      <point x="0" y="247" type="curve"/>
      <point x="18" y="-1" type="line"/>
      <point x="87" y="-1"/>
      <point x="235" y="52"/>
    </contour>
    <contour>
      <point x="344" y="375" type="line"/>
      <point x="363" y="337" type="line"/>
      <point x="522" y="451" type="line"/>
      <point x="522" y="361" type="line" smooth="yes"/>
      <point x="522.0" y="263.0"/>
      <point x="483" y="247"/>
      <point x="420" y="247" type="curve"/>
      <point x="420" y="-1" type="line"/>
      <point x="848" y="-1" type="line"/>
      <point x="848" y="247" type="line"/>
      <point x="785" y="247"/>
      <point x="725.0" y="263.0"/>
      <point x="725" y="361" type="curve" smooth="yes"/>
      <point x="725" y="388" type="line" smooth="yes"/>
      <point x="725.0" y="486.0"/>
      <point x="785" y="502"/>
      <point x="848" y="502" type="curve"/>
      <point x="848" y="750" type="line"/>
      <point x="693" y="750" type="line" smooth="yes"/>
      <point x="593.0" y="750.0"/>
      <point x="522.0" y="679.0"/>
      <point x="522" y="579" type="curve" smooth="yes"/>
      <point x="522" y="517" type="line"/>
    </contour>
    <contour>
      <point x="122" y="361" type="move"/>
      <point x="122" y="263"/>
      <point x="63" y="247"/>
      <point x="0" y="247" type="curve"/>
      <point x="0" y="-1" type="line"/>
      <point x="331" y="-1" type="line"/>
      <point x="331" y="247" type="line"/>
      <point x="268" y="247"/>
      <point x="215" y="263"/>
      <point x="215" y="361" type="curve"/>
    </contour>
  </outline>
</glyph>
<glyph name="N" format="2">
  <advance width="695"/>
  <unicode hex="004E"/>
  <outline>
    <contour>
      <point x="213" y="484" type="curve"/>
      <point x="177" y="433" type="line"/>
      <point x="297" y="236" type="line" smooth="yes"/>
      <point x="372" y="113"/>
      <point x="497" y="0"/>
      <point x="641" y="0" type="curve" smooth="yes"/>
      <point x="653" y="0" type="line"/>
      <point x="653" y="247" type="line"/>
      <point x="590" y="247"/>
      <point x="533" y="263"/>
      <point x="533" y="361" type="curve" smooth="yes"/>
      <point x="533" y="388" type="line" smooth="yes"/>
      <point x="533" y="486"/>
      <point x="592" y="502"/>
      <point x="655" y="502" type="curve"/>
      <point x="655" y="750" type="line"/>
      <point x="486" y="750"/>
      <point x="428" y="702"/>
      <point x="440" y="325" type="curve"/>
      <point x="481" y="335" type="line"/>
      <point x="198" y="750" type="line"/>
      <point x="35" y="750" type="line"/>
      <point x="2" y="502" type="line"/>
      <point x="65" y="502"/>
      <point x="122" y="486"/>
      <point x="122" y="388" type="curve" smooth="yes"/>
      <point x="122" y="361" type="line" smooth="yes"/>
      <point x="122" y="263"/>
      <point x="63" y="247"/>
      <point x="0" y="247" type="curve"/>
      <point x="0" y="-1" type="line"/>
      <point x="169" y="-1"/>
      <point x="234" y="52"/>
    </contour>
  </outline>
</glyph>
<glyph name="Q" format="2">
  <advance width="712"/>
  <unicode hex="0051"/>
  <guideline x="300" y="371" angle="0" identifier="JYFJotEaSe"/>
  <guideline x="243" y="284" angle="0" identifier="4okEkZNnjM"/>
  <outline>
    <contour>
      <point x="329" y="126" type="curve" smooth="yes"/>
      <point x="329" y="181" type="line"/>
      <point x="346" y="181" type="line"/>
      <point x="346" y="53"/>
      <point x="450" y="1"/>
      <point x="665" y="1" type="curve"/>
      <point x="665" y="249" type="line"/>
      <point x="485" y="249" type="line"/>
      <point x="485" y="265" type="line"/>
      <point x="543" y="265"/>
      <point x="672" y="267"/>
      <point x="672" y="496" type="curve" smooth="yes"/>
      <point x="672" y="661"/>
      <point x="527" y="761"/>
      <point x="333" y="761" type="curve" smooth="yes"/>
      <point x="151" y="761"/>
      <point x="0" y="677"/>
      <point x="0" y="375" type="curve" smooth="yes"/>
      <point x="0" y="99"/>
      <point x="107" y="-6"/>
      <point x="202" y="-6" type="curve" smooth="yes"/>
      <point x="321" y="-6"/>
      <point x="329" y="102"/>
    </contour>
    <contour>
      <point x="93" y="375" type="curve" smooth="yes"/>
      <point x="93" y="478"/>
      <point x="174" y="506"/>
      <point x="272" y="506" type="curve" smooth="yes"/>
      <point x="450" y="506"/>
      <point x="450" y="450"/>
      <point x="450" y="248" type="curve"/>
      <point x="388" y="248"/>
      <point x="384" y="284"/>
      <point x="372" y="302" type="curve" smooth="yes"/>
      <point x="360" y="320"/>
      <point x="337" y="340"/>
      <point x="302" y="340" type="curve" smooth="yes"/>
      <point x="248" y="340"/>
      <point x="226" y="307"/>
      <point x="226" y="272" type="curve" smooth="yes"/>
      <point x="226" y="246" type="line"/>
      <point x="150" y="255"/>
      <point x="93" y="289"/>
    </contour>
    <contour>
      <point x="279" y="284" type="line" smooth="yes"/>
      <point x="279" y="298"/>
      <point x="287" y="316"/>
      <point x="303" y="316" type="curve" smooth="yes"/>
      <point x="322" y="316"/>
      <point x="325" y="299"/>
      <point x="325" y="287" type="curve" smooth="yes"/>
      <point x="325" y="267" type="line" smooth="yes"/>
      <point x="325" y="253"/>
      <point x="318" y="244"/>
      <point x="307" y="244" type="curve" smooth="yes"/>
      <point x="296" y="244" type="line" smooth="yes"/>
      <point x="285" y="244"/>
      <point x="279" y="253"/>
      <point x="279" y="267" type="curve" smooth="yes"/>
    </contour>
  </outline>
</glyph>
<glyph name="U" format="2">
  <advance width="744"/>
  <unicode hex="0055"/>
  <outline>
    <contour>
      <point x="424" y="502" type="line"/>
      <point x="424" y="502"/>
      <point x="436" y="502"/>
      <point x="436" y="502" type="curve" smooth="yes"/>
      <point x="471" y="502"/>
      <point x="487" y="456"/>
      <point x="492" y="410" type="curve"/>
      <point x="492" y="352" type="line"/>
      <point x="492" y="291"/>
      <point x="473" y="241"/>
      <point x="376" y="241" type="curve"/>
      <point x="302" y="241"/>
      <point x="271" y="248"/>
      <point x="271" y="363" type="curve" smooth="yes"/>
      <point x="271" y="437"/>
      <point x="285" y="502"/>
      <point x="338" y="502" type="curve" smooth="yes"/>
      <point x="338" y="502"/>
      <point x="348" y="502"/>
      <point x="348" y="502" type="curve"/>
      <point x="348" y="750" type="line"/>
      <point x="33" y="750" type="line"/>
      <point x="0" y="502" type="line"/>
      <point x="131" y="502" type="line"/>
      <point x="101" y="545" type="line"/>
      <point x="74" y="275" type="line" smooth="yes"/>
      <point x="44" y="-25"/>
      <point x="290" y="-11"/>
      <point x="309" y="-11" type="curve"/>
      <point x="410" y="-11"/>
      <point x="432" y="44"/>
      <point x="478" y="44" type="curve" smooth="yes"/>
      <point x="515" y="44"/>
      <point x="522" y="17"/>
      <point x="522" y="-1" type="curve"/>
      <point x="704" y="-1" type="line"/>
      <point x="704" y="247" type="line"/>
      <point x="641" y="247"/>
      <point x="581" y="253"/>
      <point x="581" y="378" type="curve"/>
      <point x="581" y="490"/>
      <point x="641" y="502"/>
      <point x="704" y="502" type="curve"/>
      <point x="704" y="750" type="line"/>
      <point x="424" y="750" type="line"/>
    </contour>
  </outline>
</glyph>
<glyph name="V" format="2">
  <advance width="691"/>
  <unicode hex="0056"/>
  <outline>
    <contour>
      <point x="0" y="502" type="line"/>
      <point x="133" y="502" type="line"/>
      <point x="272" y="-1" type="line"/>
      <point x="527" y="-1" type="line"/>
      <point x="527" y="248" type="line"/>
      <point x="487" y="248"/>
      <point x="466.6906971675757" y="273.8823224389693"/>
      <point x="473" y="313" type="curve" smooth="yes"/>
      <point x="478" y="344" type="line" smooth="yes"/>
      <point x="499.33536427536865" y="476.2792585072857"/>
      <point x="555.0" y="502.0"/>
      <point x="618" y="502" type="curve" smooth="yes"/>
      <point x="671" y="502" type="line"/>
      <point x="671" y="750" type="line"/>
      <point x="481" y="750"/>
      <point x="445.1535908874479" y="684.9709598857248"/>
      <point x="398" y="436" type="curve" smooth="yes"/>
      <point x="373" y="304" type="line"/>
      <point x="287" y="586" type="line" smooth="yes"/>
      <point x="252.57799254356482" y="698.8721639850548"/>
      <point x="170.0" y="750.0"/>
      <point x="51" y="750" type="curve" smooth="yes"/>
      <point x="33" y="750" type="line"/>
    </contour>
  </outline>
</glyph>
<glyph name="X" format="2">
  <advance width="639"/>
  <unicode hex="0058"/>
  <outline>
    <contour>
      <point x="8" y="502" type="line"/>
      <point x="219" y="502" type="line"/>
      <point x="127" y="750" type="line"/>
      <point x="97" y="750" type="line" smooth="yes"/>
      <point x="41" y="750" type="line"/>
    </contour>
    <contour>
      <point x="67" y="750" type="line"/>
      <point x="254" y="248" type="line" smooth="yes"/>
      <point x="279" y="180"/>
      <point x="306" y="124"/>
      <point x="337" y="83" type="curve" smooth="yes"/>
      <point x="374" y="33"/>
      <point x="416" y="0"/>
      <point x="466" y="0" type="curve" smooth="yes"/>
      <point x="599" y="0" type="line"/>
      <point x="599" y="248" type="line"/>
      <point x="509" y="248" type="line" smooth="yes"/>
      <point x="464" y="248"/>
      <point x="436" y="259"/>
      <point x="411" y="326" type="curve" smooth="yes"/>
      <point x="252" y="750" type="line"/>
    </contour>
    <contour>
      <point x="212" y="248" type="line"/>
      <point x="287" y="248" type="line"/>
      <point x="287" y="280" type="line"/>
      <point x="212" y="280" type="line"/>
    </contour>
    <contour>
      <point x="200" y="500" type="line"/>
      <point x="246" y="750" type="line"/>
      <point x="135" y="750" type="line"/>
    </contour>
    <contour>
      <point x="360" y="418" type="line"/>
      <point x="392" y="503" type="line" smooth="yes"/>
      <point x="411" y="552"/>
      <point x="472" y="541"/>
      <point x="479" y="502" type="curve"/>
      <point x="599" y="502" type="line"/>
      <point x="599" y="750" type="line"/>
      <point x="487" y="750" type="line" smooth="yes"/>
      <point x="414" y="750"/>
      <point x="384" y="686"/>
      <point x="380" y="674" type="curve" smooth="yes"/>
      <point x="300" y="464" type="line"/>
    </contour>
    <contour>
      <point x="165" y="83" type="curve" smooth="yes"/>
      <point x="195" y="124"/>
      <point x="223" y="180"/>
      <point x="248" y="248" type="curve" smooth="yes"/>
      <point x="310" y="418" type="line"/>
      <point x="261" y="506" type="line"/>
      <point x="194" y="326" type="line" smooth="yes"/>
      <point x="168" y="259"/>
      <point x="140" y="248"/>
      <point x="96" y="248" type="curve" smooth="yes"/>
      <point x="0" y="248" type="line"/>
      <point x="0" y="0" type="line"/>
      <point x="35" y="0" type="line" smooth="yes"/>
      <point x="86" y="0"/>
      <point x="128" y="33"/>
    </contour>
  </outline>
</glyph>
<glyph name="Y" format="2">
  <advance width="684"/>
  <unicode hex="0059"/>
  <guideline x="372.5" y="0" angle="90.0" identifier="eJKkZFWtoU"/>
  <outline>
    <contour>
      <point x="0" y="502" type="line"/>
      <point x="133" y="502" type="line"/>
      <point x="185" y="328" type="line" smooth="yes"/>
      <point x="200" y="278"/>
      <point x="180" y="248"/>
      <point x="133" y="248" type="curve" smooth="yes"/>
      <point x="22" y="248" type="line"/>
      <point x="22" y="-1" type="line"/>
      <point x="511" y="-1" type="line"/>
      <point x="511" y="248" type="line"/>
      <point x="449" y="248" type="line" name="_p_cornerRadius:41"/>
      <point x="449" y="357" type="line"/>
      <point x="451" y="478"/>
      <point x="464" y="502"/>
      <point x="525" y="502" type="curve" smooth="yes"/>
      <point x="664" y="502" type="line"/>
      <point x="664" y="750" type="line"/>
      <point x="419" y="750"/>
      <point x="354" y="657"/>
      <point x="353" y="410" type="curve"/>
      <point x="226" y="750" type="line"/>
      <point x="33" y="750" type="line"/>
    </contour>
  </outline>
</glyph>
<glyph name="Z" format="2">
  <advance width="608"/>
  <unicode hex="005A"/>
  <outline>
    <contour>
      <point x="440" y="325" type="line"/>
      <point x="440" y="311" type="line" smooth="yes"/>
      <point x="440" y="262"/>
      <point x="413" y="248"/>
      <point x="363" y="248" type="curve"/>
      <point x="133" y="248" type="line"/>
      <point x="568" y="501" type="line"/>
      <point x="568" y="750" type="line"/>
      <point x="42" y="750" type="line"/>
      <point x="0" y="406" type="line"/>
      <point x="35" y="406" type="line"/>
      <point x="41" y="457"/>
      <point x="64" y="501"/>
      <point x="159" y="501" type="curve"/>
      <point x="450" y="501" type="line"/>
      <point x="12" y="248" type="line"/>
      <point x="12" y="-1" type="line"/>
      <point x="193" y="-1" type="line"/>
      <point x="195" y="28"/>
      <point x="211" y="43"/>
      <point x="235" y="44" type="curve"/>
      <point x="290" y="44"/>
      <point x="305" y="-12"/>
      <point x="412" y="-12" type="curve"/>
      <point x="470" y="-11"/>
      <point x="525" y="5"/>
      <point x="568" y="36" type="curve"/>
      <point x="568" y="325" type="line"/>
    </contour>
  </outline>
</glyph>
<glyph name="bracketleft" format="2">
  <advance width="172"/>
  <unicode hex="005B"/>
  <outline>
    <contour>
      <point x="32" y="764" type="curve"/>
      <point x="58" y="764"/>
      <point x="106" y="764"/>
      <point x="132" y="762" type="curve"/>
      <point x="132" y="794" type="line"/>
      <point x="106" y="792"/>
      <point x="30" y="792"/>
      <point x="0" y="794" type="curve"/>
      <point x="3" y="652"/>
      <point x="8" y="446"/>
      <point x="8" y="369" type="curve" smooth="yes"/>
      <point x="8" y="290"/>
      <point x="3" y="85"/>
      <point x="0" y="-57" type="curve"/>
      <point x="30" y="-55"/>
      <point x="106" y="-55"/>
      <point x="132" y="-57" type="curve"/>
      <point x="132" y="-25" type="line"/>
      <point x="106" y="-27"/>
      <point x="58" y="-27"/>
      <point x="32" y="-27" type="curve"/>
      <point x="32" y="-27"/>
      <point x="25" y="252"/>
      <point x="25" y="369" type="curve" smooth="yes"/>
      <point x="25" y="488"/>
      <point x="32" y="764"/>
    </contour>
  </outline>
</glyph>
<glyph name="c" format="2">
  <advance width="572"/>
  <unicode hex="0063"/>
  <guideline x="187" y="394" angle="0" identifier="SINOUYc1ts"/>
  <guideline x="291" y="363" angle="0" identifier="3LXaVPP3Ah"/>
  <outline>
    <contour>
      <point x="478" y="363" type="line"/>
      <point x="478" y="299"/>
      <point x="413" y="232"/>
      <point x="281" y="232" type="curve" smooth="yes"/>
      <point x="156" y="232"/>
      <point x="82" y="259"/>
      <point x="82" y="328" type="curve" smooth="yes"/>
      <point x="82" y="412"/>
      <point x="173" y="437"/>
      <point x="281" y="437" type="curve" smooth="yes"/>
      <point x="419" y="437"/>
      <point x="474" y="393"/>
      <point x="474" y="393" type="curve"/>
      <point x="531" y="393" type="line"/>
      <point x="531" y="638" type="line"/>
      <point x="495" y="645"/>
      <point x="444" y="659"/>
      <point x="376" y="626" type="curve"/>
      <point x="363" y="634"/>
      <point x="343" y="648"/>
      <point x="281" y="648" type="curve" smooth="yes"/>
      <point x="141" y="648"/>
      <point x="0" y="576"/>
      <point x="0" y="318" type="curve" smooth="yes"/>
      <point x="0" y="60"/>
      <point x="141" y="-10"/>
      <point x="281" y="-10" type="curve"/>
      <point x="497" y="-10"/>
      <point x="532" y="118"/>
      <point x="532" y="118" type="curve"/>
      <point x="532" y="363" type="line"/>
    </contour>
  </outline>
</glyph>
<glyph name="g" format="2">
  <advance width="664"/>
  <unicode hex="0067"/>
  <guideline x="607" y="284" angle="90" identifier="r38Ot5SiBv"/>
  <outline>
    <contour>
      <point x="183" y="180" type="line" smooth="yes"/>
      <point x="74" y="180"/>
      <point x="20.000000000000014" y="118.0"/>
      <point x="20" y="44" type="curve" smooth="yes"/>
      <point x="19.99999999999999" y="-22.0"/>
      <point x="41.0" y="-120.0"/>
      <point x="170" y="-120" type="curve" smooth="yes"/>
      <point x="253.0" y="-120.0"/>
      <point x="298.0" y="-68.0"/>
      <point x="358" y="-68" type="curve" smooth="yes"/>
      <point x="394.0" y="-68.0"/>
      <point x="406" y="-86"/>
      <point x="409" y="-112" type="curve"/>
      <point x="585" y="-112" type="line"/>
      <point x="585" y="-61" type="line" smooth="yes"/>
      <point x="585" y="32"/>
      <point x="557" y="123"/>
      <point x="444" y="123" type="curve" smooth="yes"/>
      <point x="183" y="123" type="line" smooth="yes"/>
      <point x="161" y="123"/>
      <point x="161" y="150"/>
      <point x="183" y="150" type="curve" smooth="yes"/>
      <point x="360" y="150" type="line" smooth="yes"/>
      <point x="503" y="150"/>
      <point x="607" y="229"/>
      <point x="607" y="392" type="curve" smooth="yes"/>
      <point x="607" y="514"/>
      <point x="521" y="601"/>
      <point x="375" y="601" type="curve" smooth="yes"/>
      <point x="258.0" y="601" type="line"/>
      <point x="258.0" y="626" type="line"/>
      <point x="451" y="626" type="line" smooth="yes"/>
      <point x="575.0" y="626.0"/>
      <point x="624" y="663"/>
      <point x="624" y="764" type="curve"/>
      <point x="420" y="764" type="line"/>
      <point x="420" y="710" type="line" smooth="yes"/>
      <point x="420.0" y="683.0"/>
      <point x="419.0" y="656.0"/>
      <point x="311" y="656" type="curve" smooth="yes"/>
      <point x="112" y="656"/>
      <point x="0" y="567"/>
      <point x="0" y="392" type="curve" smooth="yes"/>
      <point x="0" y="272"/>
      <point x="90" y="207"/>
      <point x="223" y="207" type="curve" smooth="yes"/>
      <point x="345" y="207" type="line"/>
      <point x="345" y="180" type="line"/>
    </contour>
    <contour>
      <point x="81" y="344" type="curve" smooth="yes"/>
      <point x="81" y="408"/>
      <point x="173" y="422"/>
      <point x="258" y="422" type="curve" smooth="yes"/>
      <point x="344" y="422"/>
      <point x="416" y="408"/>
      <point x="416" y="344" type="curve" smooth="yes"/>
      <point x="416" y="283"/>
      <point x="345" y="266"/>
      <point x="259" y="266" type="curve" smooth="yes"/>
      <point x="174" y="266"/>
      <point x="81" y="283"/>
    </contour>
  </outline>
</glyph>
<glyph name="k" format="2">
  <advance width="636"/>
  <unicode hex="006B"/>
  <outline>
    <contour>
      <point x="62" y="314" type="line"/>
      <point x="62" y="254"/>
      <point x="14" y="247"/>
      <point x="0" y="247" type="curve"/>
      <point x="0" y="-1" type="line"/>
      <point x="258" y="-1" type="line"/>
      <point x="258" y="247" type="line"/>
      <point x="243" y="247"/>
      <point x="210" y="249"/>
      <point x="203" y="295" type="curve"/>
      <point x="234" y="303" type="line"/>
      <point x="276" y="310"/>
      <point x="301" y="294"/>
      <point x="301" y="259" type="curve"/>
      <point x="301" y="201" type="line" smooth="yes"/>
      <point x="301" y="68"/>
      <point x="349" y="-9"/>
      <point x="442" y="-9" type="curve" smooth="yes"/>
      <point x="553" y="-9"/>
      <point x="596" y="58"/>
      <point x="596" y="201" type="curve" smooth="yes"/>
      <point x="596" y="248" type="line"/>
      <point x="570" y="248" type="line"/>
      <point x="570" y="203"/>
      <point x="561" y="181"/>
      <point x="530" y="181" type="curve" smooth="yes"/>
      <point x="501" y="181"/>
      <point x="495" y="200"/>
      <point x="495" y="253" type="curve"/>
      <point x="495" y="300"/>
      <point x="496" y="437"/>
      <point x="337" y="373" type="curve" smooth="yes"/>
      <point x="236" y="332" type="line"/>
      <point x="236" y="353" type="line"/>
      <point x="354" y="401"/>
      <point x="434" y="438"/>
      <point x="558" y="444" type="curve"/>
      <point x="558" y="641" type="line"/>
      <point x="363" y="641" type="line" smooth="yes"/>
      <point x="262" y="641"/>
      <point x="230" y="559"/>
      <point x="234" y="476" type="curve"/>
      <point x="270" y="476"/>
      <point x="287" y="459"/>
      <point x="287" y="439" type="curve" smooth="yes"/>
      <point x="287" y="416"/>
      <point x="270" y="389"/>
      <point x="199" y="389" type="curve"/>
      <point x="199" y="530" type="line"/>
      <point x="199" y="605"/>
      <point x="224" y="661"/>
      <point x="275" y="686" type="curve"/>
      <point x="275" y="750" type="line"/>
      <point x="0" y="750" type="line"/>
      <point x="0" y="503" type="line"/>
      <point x="14" y="503"/>
      <point x="62" y="496"/>
      <point x="62" y="436" type="curve"/>
    </contour>
  </outline>
</glyph>
<glyph name="w" format="2">
  <advance width="915"/>
  <unicode hex="0077"/>
  <outline>
    <contour>
      <point x="0" y="392" type="line"/>
      <point x="9" y="392" type="line" smooth="yes"/>
      <point x="34" y="392"/>
      <point x="50" y="380"/>
      <point x="57" y="355" type="curve" smooth="yes"/>
      <point x="156" y="-1" type="line"/>
      <point x="306" y="-1" type="line"/>
      <point x="405" y="313" type="line"/>
      <point x="492" y="-1" type="line"/>
      <point x="775" y="-1" type="line"/>
      <point x="775" y="248" type="line"/>
      <point x="751" y="248"/>
      <point x="727" y="276"/>
      <point x="748" y="337" type="curve" smooth="yes"/>
      <point x="765" y="387"/>
      <point x="812" y="392"/>
      <point x="866" y="392" type="curve" smooth="yes"/>
      <point x="875" y="392" type="line"/>
      <point x="875" y="640" type="line"/>
      <point x="672" y="640" type="line"/>
      <point x="672" y="392" type="line"/>
      <point x="694" y="392"/>
      <point x="709" y="375"/>
      <point x="702" y="355" type="curve" smooth="yes"/>
      <point x="654" y="210" type="line"/>
      <point x="611" y="348" type="line" smooth="yes"/>
      <point x="604" y="371"/>
      <point x="615" y="392"/>
      <point x="635" y="392" type="curve"/>
      <point x="635" y="640" type="line"/>
      <point x="336" y="640" type="line"/>
      <point x="336" y="392" type="line"/>
      <point x="358" y="392"/>
      <point x="373" y="375"/>
      <point x="366" y="355" type="curve" smooth="yes"/>
      <point x="318" y="210" type="line"/>
      <point x="275" y="348" type="line" smooth="yes"/>
      <point x="268" y="371"/>
      <point x="279" y="392"/>
      <point x="299" y="392" type="curve"/>
      <point x="299" y="640" type="line"/>
      <point x="0" y="640" type="line"/>
    </contour>
  </outline>
</glyph>
<glyph name="x" format="2">
  <advance width="596"/>
  <unicode hex="0078"/>
  <guideline x="555" y="290" angle="90" identifier="p405gMIm2M"/>
  <outline>
    <contour>
      <point x="538" y="392" type="line" smooth="yes"/>
      <point x="473.0" y="392.0"/>
      <point x="443.06894655978294" y="379.90967356935846"/>
      <point x="392" y="341" type="curve" smooth="yes"/>
      <point x="371" y="325" type="line"/>
      <point x="358" y="331" type="line"/>
      <point x="382" y="374"/>
      <point x="363" y="392"/>
      <point x="341" y="392" type="curve"/>
      <point x="341" y="640" type="line"/>
      <point x="556" y="640" type="line"/>
      <point x="556" y="392" type="line"/>
    </contour>
    <contour>
      <point x="57" y="378" type="line" smooth="yes"/>
      <point x="35" y="389"/>
      <point x="24" y="392"/>
      <point x="0" y="392" type="curve"/>
      <point x="0" y="640" type="line"/>
      <point x="297" y="640" type="line"/>
      <point x="297" y="392" type="line"/>
      <point x="282" y="392"/>
      <point x="280" y="374"/>
      <point x="298" y="365" type="curve" smooth="yes"/>
      <point x="498" y="263" type="line" smooth="yes"/>
      <point x="522" y="251"/>
      <point x="530" y="248"/>
      <point x="556" y="248" type="curve"/>
      <point x="556" y="0" type="line"/>
      <point x="259" y="0" type="line"/>
      <point x="259" y="248" type="line"/>
      <point x="274" y="248"/>
      <point x="281" y="265"/>
      <point x="259" y="276" type="curve" smooth="yes"/>
    </contour>
    <contour>
      <point x="18" y="248" type="line" smooth="yes"/>
      <point x="83" y="248"/>
      <point x="113" y="260"/>
      <point x="164" y="299" type="curve" smooth="yes"/>
      <point x="185" y="315" type="line"/>
      <point x="198" y="309" type="line"/>
      <point x="174" y="266"/>
      <point x="193" y="248"/>
      <point x="215" y="248" type="curve"/>
      <point x="215" y="0" type="line"/>
      <point x="0" y="0" type="line"/>
      <point x="0" y="248" type="line"/>
    </contour>
  </outline>
</glyph>
<glyph name="braceleft" format="2">
  <advance width="220"/>
  <unicode hex="007B"/>
  <outline>
    <contour>
      <point x="86" y="506" type="curve"/>
      <point x="86" y="583"/>
      <point x="66" y="595"/>
      <point x="66" y="664" type="curve" smooth="yes"/>
      <point x="66" y="723"/>
      <point x="121" y="763"/>
      <point x="180" y="762" type="curve"/>
      <point x="180" y="794" type="line"/>
      <point x="102" y="794"/>
      <point x="39" y="739"/>
      <point x="39" y="662" type="curve" smooth="yes"/>
      <point x="39" y="595"/>
      <point x="66" y="577"/>
      <point x="66" y="500" type="curve"/>
      <point x="66" y="430"/>
      <point x="42" y="389"/>
      <point x="0" y="373" type="curve"/>
      <point x="0" y="364" type="line"/>
      <point x="42" y="348"/>
      <point x="66" y="307"/>
      <point x="66" y="237" type="curve"/>
      <point x="66" y="160"/>
      <point x="39" y="142"/>
      <point x="39" y="75" type="curve" smooth="yes"/>
      <point x="39" y="-2"/>
      <point x="102" y="-57"/>
      <point x="180" y="-57" type="curve"/>
      <point x="180" y="-25" type="line"/>
      <point x="121" y="-26"/>
      <point x="66" y="14"/>
      <point x="66" y="73" type="curve" smooth="yes"/>
      <point x="66" y="142"/>
      <point x="86" y="154"/>
      <point x="86" y="231" type="curve"/>
      <point x="86" y="299"/>
      <point x="49" y="354"/>
      <point x="34" y="364" type="curve"/>
      <point x="21" y="364" type="line"/>
      <point x="21" y="373" type="line"/>
      <point x="34" y="373" type="line"/>
      <point x="49" y="383"/>
      <point x="86" y="438"/>
    </contour>
  </outline>
</glyph>
<glyph name="currency" format="2">
  <advance width="476"/>
  <unicode hex="00A4"/>
  <outline>
    <contour>
      <point x="411" y="382" type="curve"/>
      <point x="411" y="384" type="line"/>
      <point x="411" y="434"/>
      <point x="404" y="481"/>
      <point x="379" y="516" type="curve"/>
      <point x="400" y="537"/>
      <point x="420" y="555"/>
      <point x="436" y="570" type="curve"/>
      <point x="404" y="602" type="line"/>
      <point x="389" y="586"/>
      <point x="371" y="566"/>
      <point x="350" y="545" type="curve"/>
      <point x="321" y="566"/>
      <point x="279" y="579"/>
      <point x="219" y="579" type="curve"/>
      <point x="158" y="579"/>
      <point x="116" y="566"/>
      <point x="86" y="545" type="curve"/>
      <point x="65" y="566"/>
      <point x="47" y="586"/>
      <point x="32" y="602" type="curve"/>
      <point x="0" y="570" type="line"/>
      <point x="16" y="555"/>
      <point x="36" y="536"/>
      <point x="57" y="516" type="curve"/>
      <point x="32" y="480"/>
      <point x="25" y="434"/>
      <point x="25" y="383" type="curve"/>
      <point x="25" y="333"/>
      <point x="32" y="287"/>
      <point x="57" y="252" type="curve"/>
      <point x="41" y="236"/>
      <point x="22" y="219"/>
      <point x="0" y="198" type="curve"/>
      <point x="32" y="166" type="line"/>
      <point x="53" y="188"/>
      <point x="70" y="206"/>
      <point x="86" y="223" type="curve"/>
      <point x="115" y="202"/>
      <point x="157" y="189"/>
      <point x="217" y="189" type="curve"/>
      <point x="221" y="189" type="line"/>
      <point x="280" y="189"/>
      <point x="321" y="201"/>
      <point x="350" y="222" type="curve"/>
      <point x="366" y="206"/>
      <point x="383" y="188"/>
      <point x="404" y="166" type="curve"/>
      <point x="436" y="198" type="line"/>
      <point x="414" y="219"/>
      <point x="396" y="237"/>
      <point x="380" y="252" type="curve"/>
      <point x="404" y="287"/>
      <point x="411" y="333"/>
    </contour>
    <contour>
      <point x="273" y="383" type="curve"/>
      <point x="273" y="356"/>
      <point x="265" y="329"/>
      <point x="219" y="329" type="curve"/>
      <point x="171" y="329"/>
      <point x="163" y="356"/>
      <point x="163" y="383" type="curve"/>
      <point x="163" y="412"/>
      <point x="171" y="439"/>
      <point x="219" y="439" type="curve"/>
      <point x="265" y="439"/>
      <point x="273" y="412"/>
    </contour>
  </outline>
</glyph>
<glyph name="yen" format="2">
  <advance width="704"/>
  <unicode hex="00A5"/>
  <outline>
    <contour>
      <point x="179" y="347" type="line"/>
      <point x="185" y="328" type="line" smooth="yes"/>
      <point x="200" y="278"/>
      <point x="180" y="248"/>
      <point x="133" y="248" type="curve" smooth="yes"/>
      <point x="22" y="248" type="line"/>
      <point x="22" y="-1" type="line"/>
      <point x="511" y="-1" type="line"/>
      <point x="511" y="248" type="line"/>
      <point x="449" y="248" type="line" name="_p_cornerRadius:41"/>
      <point x="449" y="347" type="line"/>
    </contour>
    <contour>
      <point x="0" y="502" type="line"/>
      <point x="133" y="502" type="line"/>
      <point x="160" y="412" type="line"/>
      <point x="163" y="400" type="line"/>
      <point x="450" y="400" type="line"/>
      <point x="451" y="404"/>
      <point x="451" y="408"/>
      <point x="451" y="412" type="curve" smooth="yes"/>
      <point x="457" y="486"/>
      <point x="475" y="502"/>
      <point x="525" y="502" type="curve" smooth="yes"/>
      <point x="664" y="502" type="line"/>
      <point x="664" y="750" type="line"/>
      <point x="420" y="750"/>
      <point x="354" y="658"/>
      <point x="353" y="412" type="curve" smooth="yes"/>
      <point x="353" y="411"/>
      <point x="353" y="411"/>
      <point x="353" y="410" type="curve"/>
      <point x="352" y="412" type="line"/>
      <point x="226" y="750" type="line"/>
      <point x="33" y="750" type="line"/>
    </contour>
    <component base="hyphen" xOffset="104" yOffset="-35"/>
    <component base="hyphen" xOffset="104" yOffset="29"/>
  </outline>
</glyph>
<glyph name="section" format="2">
  <advance width="573"/>
  <unicode hex="00A7"/>
  <guideline x="348" y="224" angle="0" identifier="dl7g0SgL0k"/>
  <guideline x="267" y="537" angle="0" identifier="8mAqp2GVxJ"/>
  <outline>
    <contour>
      <point x="53" y="356" type="curve"/>
      <point x="0" y="356" type="line"/>
      <point x="0" y="109" type="line"/>
      <point x="18" y="44"/>
      <point x="128" y="-19"/>
      <point x="262" y="-19" type="curve" smooth="yes"/>
      <point x="408" y="-19"/>
      <point x="533" y="92"/>
      <point x="533" y="197" type="curve"/>
      <point x="533" y="224" type="line"/>
      <point x="443" y="224" type="line"/>
      <point x="443" y="240" type="line"/>
      <point x="495" y="240"/>
      <point x="533" y="275"/>
      <point x="533" y="320" type="curve" smooth="yes"/>
      <point x="533" y="412"/>
      <point x="410" y="453"/>
      <point x="264" y="477" type="curve" smooth="yes"/>
      <point x="236" y="482"/>
      <point x="203" y="489"/>
      <point x="203" y="509" type="curve" smooth="yes"/>
      <point x="203" y="533"/>
      <point x="237" y="537"/>
      <point x="264" y="537" type="curve"/>
      <point x="306" y="537"/>
      <point x="349" y="529"/>
      <point x="349" y="495" type="curve"/>
      <point x="515" y="495" type="line"/>
      <point x="515" y="740" type="line"/>
      <point x="464" y="756"/>
      <point x="415" y="748"/>
      <point x="389" y="715" type="curve"/>
      <point x="357" y="737"/>
      <point x="314" y="751"/>
      <point x="262" y="751" type="curve" smooth="yes"/>
      <point x="100" y="751"/>
      <point x="1" y="693"/>
      <point x="1" y="624" type="curve" smooth="yes"/>
      <point x="1" y="553"/>
      <point x="77" y="537"/>
      <point x="92" y="537" type="curve"/>
      <point x="92" y="521" type="line"/>
      <point x="1" y="521" type="line"/>
      <point x="1" y="506" type="line"/>
      <point x="1" y="406"/>
      <point x="133" y="358"/>
      <point x="260" y="336" type="curve" smooth="yes"/>
      <point x="321" y="325"/>
      <point x="349" y="306"/>
      <point x="349" y="277" type="curve" smooth="yes"/>
      <point x="349" y="253"/>
      <point x="334" y="224"/>
      <point x="262" y="224" type="curve" smooth="yes"/>
      <point x="121" y="224"/>
      <point x="53" y="294"/>
    </contour>
    <contour>
      <point x="303" y="377"/>
      <point x="203" y="382"/>
      <point x="203" y="413" type="curve"/>
      <point x="203" y="437"/>
      <point x="239" y="441"/>
      <point x="263" y="441" type="curve" smooth="yes"/>
      <point x="333" y="441"/>
      <point x="354" y="419"/>
      <point x="354" y="383" type="curve" smooth="yes"/>
      <point x="354" y="364" type="line"/>
    </contour>
  </outline>
</glyph>
<glyph name="copyright" format="2">
  <advance width="876"/>
  <unicode hex="00A9"/>
  <outline>
    <contour>
      <point x="418" y="-46" type="curve" smooth="yes"/>
      <point x="137" y="-46"/>
      <point x="31" y="103"/>
      <point x="31" y="348" type="curve"/>
      <point x="31" y="593"/>
      <point x="137" y="742"/>
      <point x="418" y="742" type="curve" smooth="yes"/>
      <point x="699" y="742"/>
      <point x="805" y="593"/>
      <point x="805" y="348" type="curve"/>
      <point x="805" y="103"/>
      <point x="699" y="-46"/>
    </contour>
    <contour>
      <point x="418" y="-70" type="curve" smooth="yes"/>
      <point x="716" y="-70"/>
      <point x="836" y="83"/>
      <point x="836" y="348" type="curve"/>
      <point x="836" y="613"/>
      <point x="716" y="766"/>
      <point x="418" y="766" type="curve" smooth="yes"/>
      <point x="120" y="766"/>
      <point x="0" y="613"/>
      <point x="0" y="348" type="curve"/>
      <point x="0" y="83"/>
      <point x="120" y="-70"/>
    </contour>
    <contour>
      <point x="587" y="327" type="line"/>
      <point x="587" y="291"/>
      <point x="547" y="251"/>
      <point x="396" y="251" type="curve" smooth="yes"/>
      <point x="302" y="251"/>
      <point x="237" y="272"/>
      <point x="237" y="348" type="curve" smooth="yes"/>
      <point x="237" y="425"/>
      <point x="302" y="446"/>
      <point x="396" y="446" type="curve" smooth="yes"/>
      <point x="516" y="446"/>
      <point x="583" y="392"/>
      <point x="583" y="392" type="curve"/>
      <point x="633" y="392" type="line"/>
      <point x="633" y="628" type="line"/>
      <point x="602" y="633"/>
      <point x="557" y="645"/>
      <point x="498" y="617" type="curve"/>
      <point x="486" y="624"/>
      <point x="450" y="636"/>
      <point x="396" y="636" type="curve" smooth="yes"/>
      <point x="274" y="636"/>
      <point x="170" y="573"/>
      <point x="170" y="348" type="curve" smooth="yes"/>
      <point x="170" y="123"/>
      <point x="274" y="62"/>
      <point x="396" y="62" type="curve"/>
      <point x="585" y="62"/>
      <point x="635" y="173"/>
      <point x="635" y="173" type="curve"/>
      <point x="635" y="327" type="line"/>
    </contour>
  </outline>
</glyph>
<glyph name="logicalnot" format="2">
  <advance width="452"/>
  <unicode hex="00AC"/>
  <outline>
    <contour>
      <point x="193" y="397" type="curve" smooth="yes"/>
      <point x="123" y="397"/>
      <point x="91" y="397"/>
      <point x="0" y="399" type="curve"/>
      <point x="0" y="367" type="line"/>
      <point x="91" y="369"/>
      <point x="123" y="369"/>
      <point x="193" y="369" type="curve" smooth="yes"/>
      <point x="254" y="369"/>
      <point x="329" y="369"/>
      <point x="382" y="368" type="curve"/>
      <point x="382" y="343"/>
      <point x="382" y="293"/>
      <point x="380" y="267" type="curve"/>
      <point x="412" y="267" type="line"/>
      <point x="410" y="293"/>
      <point x="410" y="369"/>
      <point x="412" y="399" type="curve"/>
      <point x="359" y="397"/>
      <point x="265" y="397"/>
    </contour>
  </outline>
</glyph>
<glyph name="AE" format="2">
  <advance width="1010"/>
  <unicode hex="00C6"/>
  <outline>
    <contour>
      <point x="157" y="326" type="line"/>
      <point x="148" y="259"/>
      <point x="123" y="248"/>
      <point x="79" y="248" type="curve"/>
      <point x="0" y="248" type="line"/>
      <point x="0" y="0" type="line"/>
      <point x="79" y="0" type="line"/>
      <point x="128" y="5"/>
      <point x="163" y="33"/>
      <point x="189" y="83" type="curve" smooth="yes"/>
      <point x="209" y="124"/>
      <point x="223" y="180"/>
      <point x="232" y="248" type="curve" smooth="yes"/>
      <point x="358" y="248" type="line"/>
      <point x="358" y="-1" type="line"/>
      <point x="535" y="-1" type="line"/>
      <point x="537" y="28"/>
      <point x="553" y="43"/>
      <point x="577" y="44" type="curve"/>
      <point x="632" y="44"/>
      <point x="647" y="-12"/>
      <point x="754" y="-12" type="curve"/>
      <point x="812" y="-11"/>
      <point x="867" y="5"/>
      <point x="910" y="36" type="curve"/>
      <point x="910" y="325" type="line"/>
      <point x="782" y="325" type="line"/>
      <point x="782" y="311" type="line" smooth="yes"/>
      <point x="782" y="262"/>
      <point x="757" y="247"/>
      <point x="708" y="247" type="curve" smooth="yes"/>
      <point x="552" y="247" type="line"/>
      <point x="552" y="338" type="line"/>
      <point x="710" y="298" type="line"/>
      <point x="710" y="408" type="line"/>
      <point x="618" y="408" type="line" smooth="yes"/>
      <point x="527" y="408"/>
      <point x="528" y="551"/>
      <point x="619" y="551" type="curve" smooth="yes"/>
      <point x="663" y="551"/>
      <point x="695" y="524"/>
      <point x="703" y="461" type="curve"/>
      <point x="910" y="461" type="line"/>
      <point x="910" y="750" type="line"/>
      <point x="508" y="750" type="line"/>
      <point x="491" y="567" type="line"/>
      <point x="473" y="567" type="line"/>
      <point x="455" y="750" type="line"/>
      <point x="62" y="750" type="line"/>
      <point x="29" y="502" type="line"/>
      <point x="181" y="502" type="line"/>
    </contour>
    <contour>
      <point x="261" y="466" type="line" smooth="yes"/>
      <point x="268" y="525"/>
      <point x="321" y="525"/>
      <point x="329" y="466" type="curve" smooth="yes"/>
      <point x="344" y="350" type="line"/>
      <point x="246" y="350" type="line"/>
    </contour>
  </outline>
</glyph>
<glyph name="Thorn" format="2">
  <advance width="654"/>
  <unicode hex="00DE"/>
  <outline>
    <contour>
      <point x="0" y="-1" type="line"/>
      <point x="376" y="-1" type="line"/>
      <point x="376" y="247" type="line"/>
      <point x="318" y="247"/>
      <point x="263" y="261"/>
      <point x="255" y="340" type="curve"/>
      <point x="255" y="600" type="line" smooth="yes"/>
      <point x="255" y="655"/>
      <point x="276" y="702"/>
      <point x="301" y="702" type="curve"/>
      <point x="301" y="750" type="line"/>
      <point x="35" y="750" type="line"/>
      <point x="2" y="502" type="line"/>
      <point x="65" y="502"/>
      <point x="162" y="486"/>
      <point x="162" y="388" type="curve" smooth="yes"/>
      <point x="162" y="361" type="line" smooth="yes"/>
      <point x="162" y="263"/>
      <point x="63" y="247"/>
      <point x="0" y="247" type="curve"/>
    </contour>
    <contour>
      <point x="255" y="462" type="line"/>
      <point x="417" y="462" type="line"/>
      <point x="439" y="462"/>
      <point x="450" y="448"/>
      <point x="450" y="434" type="curve" smooth="yes"/>
      <point x="450" y="420"/>
      <point x="439" y="406"/>
      <point x="417" y="406" type="curve"/>
      <point x="243" y="406" type="line"/>
      <point x="243" y="324" type="line"/>
      <point x="417" y="324" type="line"/>
      <point x="546" y="324"/>
      <point x="634" y="390"/>
      <point x="634" y="508" type="curve" smooth="yes"/>
      <point x="634" y="632"/>
      <point x="569" y="710"/>
      <point x="453" y="710" type="curve" smooth="yes"/>
      <point x="281" y="710"/>
      <point x="276" y="529"/>
      <point x="276" y="500" type="curve" smooth="yes"/>
      <point x="276" y="490" type="line"/>
      <point x="255" y="490" type="line"/>
    </contour>
  </outline>
</glyph>
<glyph name="germandbls" format="2">
  <advance width="738"/>
  <unicode hex="00DF"/>
  <outline>
    <contour>
      <point x="519" y="386" type="curve" smooth="yes"/>
      <point x="519" y="386"/>
      <point x="577" y="437"/>
      <point x="577" y="526" type="curve"/>
      <point x="577" y="691"/>
      <point x="435" y="749"/>
      <point x="285" y="749" type="curve" smooth="yes"/>
      <point x="114" y="749"/>
      <point x="3" y="646"/>
      <point x="3" y="532" type="curve" smooth="yes"/>
      <point x="3" y="442"/>
      <point x="81.0" y="386.0"/>
      <point x="165" y="386" type="curve"/>
      <point x="165" y="362" type="line"/>
      <point x="1" y="362" type="line"/>
      <point x="1" y="312" type="line"/>
      <point x="62" y="312" type="line"/>
      <point x="62" y="253"/>
      <point x="13" y="247"/>
      <point x="0" y="247" type="curve"/>
      <point x="0" y="-1" type="line"/>
      <point x="202" y="-1" type="line"/>
      <point x="202" y="361" type="line"/>
      <point x="201" y="361" type="line"/>
      <point x="201" y="372"/>
      <point x="201" y="394"/>
      <point x="202" y="413" type="curve"/>
      <point x="134" y="413"/>
      <point x="89" y="449"/>
      <point x="89" y="491" type="curve" smooth="yes"/>
      <point x="89" y="565"/>
      <point x="177" y="576"/>
      <point x="254" y="576" type="curve" smooth="yes"/>
      <point x="334" y="576"/>
      <point x="410" y="553"/>
      <point x="410" y="491" type="curve" smooth="yes"/>
      <point x="410" y="424"/>
      <point x="331" y="413"/>
      <point x="245" y="413" type="curve"/>
      <point x="245" y="333" type="line"/>
      <point x="410" y="333" type="line"/>
      <point x="458" y="333"/>
      <point x="492" y="313"/>
      <point x="494" y="288" type="curve" smooth="yes"/>
      <point x="496" y="257"/>
      <point x="458" y="238"/>
      <point x="410" y="238" type="curve" smooth="yes"/>
      <point x="353" y="238"/>
      <point x="298" y="250"/>
      <point x="298" y="294" type="curve"/>
      <point x="245" y="294" type="line"/>
      <point x="245" y="116" type="line"/>
      <point x="245" y="94"/>
      <point x="321" y="-11"/>
      <point x="459" y="-11" type="curve" smooth="yes"/>
      <point x="588" y="-11"/>
      <point x="698" y="62"/>
      <point x="698" y="197" type="curve" smooth="yes"/>
      <point x="698" y="298"/>
      <point x="611" y="386"/>
    </contour>
  </outline>
</glyph>
<glyph name="eth" format="2">
  <advance width="643"/>
  <unicode hex="00F0"/>
  <outline>
    <contour>
      <point x="601" y="433" type="curve"/>
      <point x="601" y="316" type="line" smooth="yes"/>
      <point x="601" y="202"/>
      <point x="515" y="-17"/>
      <point x="308" y="-17" type="curve" smooth="yes"/>
      <point x="114" y="-17"/>
      <point x="0" y="142"/>
      <point x="0" y="327" type="curve" smooth="yes"/>
      <point x="0" y="512"/>
      <point x="62" y="651"/>
      <point x="212" y="651" type="curve" smooth="yes"/>
      <point x="413" y="651"/>
      <point x="441" y="386"/>
      <point x="441" y="386" type="curve"/>
      <point x="461" y="386" type="line"/>
      <point x="461" y="472" type="line" smooth="yes"/>
      <point x="461" y="642"/>
      <point x="358" y="686"/>
      <point x="275" y="686" type="curve"/>
      <point x="275" y="750" type="line"/>
      <point x="427" y="750"/>
      <point x="601" y="682"/>
    </contour>
    <contour>
      <point x="308" y="233" type="curve" smooth="yes"/>
      <point x="361" y="233"/>
      <point x="404" y="276"/>
      <point x="404" y="329" type="curve"/>
      <point x="404" y="384"/>
      <point x="361" y="426"/>
      <point x="308" y="426" type="curve" smooth="yes"/>
      <point x="254" y="426"/>
      <point x="212" y="384"/>
      <point x="212" y="329" type="curve" smooth="yes"/>
      <point x="212" y="276"/>
      <point x="254" y="233"/>
    </contour>
    <contour>
      <point x="603" y="723" type="line"/>
      <point x="575" y="707"/>
      <point x="526" y="674"/>
      <point x="489" y="650" type="curve" smooth="yes"/>
      <point x="452" y="627"/>
      <point x="443" y="620"/>
      <point x="396" y="588" type="curve"/>
      <point x="378" y="610" type="line"/>
      <point x="427" y="641"/>
      <point x="438" y="648"/>
      <point x="473" y="672" type="curve" smooth="yes"/>
      <point x="512" y="696"/>
      <point x="562" y="729"/>
      <point x="587" y="748" type="curve"/>
    </contour>
  </outline>
</glyph>
<glyph name="oslash" format="2">
  <advance width="632"/>
  <unicode hex="00F8"/>
  <outline>
    <contour>
      <point x="0" y="58" type="curve"/>
      <point x="22" y="36" type="line"/>
      <point x="90" y="106"/>
      <point x="215" y="231"/>
      <point x="309" y="326" type="curve" smooth="yes"/>
      <point x="404" y="420"/>
      <point x="469" y="485"/>
      <point x="592" y="605" type="curve"/>
      <point x="569" y="628" type="line"/>
      <point x="449" y="505"/>
      <point x="384" y="440"/>
      <point x="290" y="345" type="curve" smooth="yes"/>
      <point x="195" y="251"/>
      <point x="70" y="126"/>
    </contour>
    <component base="o" xOffset="2.5"/>
  </outline>
</glyph>
<glyph name="thorn" format="2">
  <advance width="703"/>
  <unicode hex="00FE"/>
  <outline>
    <contour>
      <point x="0" y="-112" type="line"/>
      <point x="318" y="-112" type="line"/>
      <point x="318" y="-47" type="line"/>
      <point x="242" y="-27"/>
      <point x="202" y="76"/>
      <point x="202" y="167" type="curve" smooth="yes"/>
      <point x="202" y="253" type="line"/>
      <point x="222" y="253" type="line"/>
      <point x="222" y="253"/>
      <point x="250" y="-12"/>
      <point x="451" y="-12" type="curve" smooth="yes"/>
      <point x="601" y="-12"/>
      <point x="663" y="127"/>
      <point x="663" y="312" type="curve" smooth="yes"/>
      <point x="663" y="497"/>
      <point x="595" y="656"/>
      <point x="451" y="656" type="curve" smooth="yes"/>
      <point x="333" y="656"/>
      <point x="227" y="557"/>
      <point x="222" y="391" type="curve"/>
      <point x="204" y="391" type="line"/>
      <point x="204" y="730" type="line"/>
      <point x="0" y="690" type="line"/>
      <point x="0" y="520" type="line"/>
      <point x="14" y="520"/>
      <point x="62" y="515"/>
      <point x="62" y="451" type="curve" smooth="yes"/>
      <point x="62" y="206" type="line" smooth="yes"/>
      <point x="62" y="142"/>
      <point x="14" y="137"/>
      <point x="0" y="137" type="curve"/>
    </contour>
    <contour>
      <point x="354" y="406" type="curve" smooth="yes"/>
      <point x="408" y="406"/>
      <point x="451" y="363"/>
      <point x="451" y="310" type="curve" smooth="yes"/>
      <point x="451" y="255"/>
      <point x="408" y="213"/>
      <point x="354" y="213" type="curve" smooth="yes"/>
      <point x="301" y="213"/>
      <point x="259" y="255"/>
      <point x="259" y="310" type="curve" smooth="yes"/>
      <point x="259" y="363"/>
      <point x="301" y="406"/>
    </contour>
  </outline>
</glyph>
<glyph name="dcroat" format="2">
  <advance width="703"/>
  <unicode hex="0111"/>
  <outline>
    <contour>
      <point x="664" y="310" type="curve"/>
      <point x="664" y="342" type="line"/>
      <point x="620" y="340"/>
      <point x="541" y="340"/>
      <point x="481" y="340" type="curve" smooth="yes"/>
      <point x="422" y="340"/>
      <point x="378" y="340"/>
      <point x="302" y="342" type="curve"/>
      <point x="302" y="310" type="line"/>
      <point x="378" y="312"/>
      <point x="422" y="312"/>
      <point x="481" y="312" type="curve" smooth="yes"/>
      <point x="541" y="312"/>
      <point x="620" y="312"/>
    </contour>
    <component base="d"/>
  </outline>
</glyph>
<glyph name="Eogonek" format="2">
  <advance width="596"/>
  <unicode hex="0118"/>
  <outline>
    <contour>
      <point x="477" y="-26" type="line"/>
      <point x="557" y="-26" type="line"/>
      <point x="557" y="54" type="line"/>
      <point x="477" y="54" type="line"/>
    </contour>
    <component base="E" xOffset="1"/>
    <component base="ogonek" xOffset="374"/>
  </outline>
</glyph>
<glyph name="IJ" format="2">
  <advance width="493"/>
  <unicode hex="0132"/>
  <outline>
    <contour>
      <point x="453" y="750" type="line"/>
      <point x="452" y="502" type="line"/>
      <point x="452" y="352" type="line"/>
      <point x="452" y="180"/>
      <point x="423" y="-1"/>
      <point x="164" y="-1" type="curve"/>
      <point x="0" y="-1" type="line"/>
      <point x="0" y="312" type="line"/>
      <point x="82" y="312" type="line"/>
      <point x="82" y="312"/>
      <point x="75" y="198"/>
      <point x="149" y="198" type="curve"/>
      <point x="238" y="198"/>
      <point x="233" y="335"/>
      <point x="233" y="335" type="curve"/>
      <point x="233" y="750" type="line"/>
    </contour>
    <contour>
      <point x="0" y="485" type="curve"/>
      <point x="0" y="352" type="line"/>
      <point x="193" y="352" type="line"/>
      <point x="193" y="485" type="line"/>
      <point x="162" y="485"/>
      <point x="143" y="494"/>
      <point x="143" y="517" type="curve"/>
      <point x="143" y="583" type="line" smooth="yes"/>
      <point x="143" y="606"/>
      <point x="151" y="615"/>
      <point x="193" y="615" type="curve"/>
      <point x="193" y="750" type="line"/>
      <point x="21" y="750" type="line"/>
      <point x="0" y="615" type="line"/>
      <point x="42" y="615"/>
      <point x="50" y="606"/>
      <point x="50" y="583" type="curve" smooth="yes"/>
      <point x="50" y="517" type="line"/>
      <point x="50" y="494"/>
      <point x="31.0" y="485.0"/>
    </contour>
  </outline>
</glyph>
<glyph name="Eng" format="2">
  <advance width="695"/>
  <unicode hex="014A"/>
  <outline>
    <contour>
      <point x="513" y="136" type="line"/>
      <point x="440" y="136" type="line"/>
      <point x="440" y="-112" type="line"/>
      <point x="480" y="-112" type="line" smooth="yes"/>
      <point x="582" y="-112"/>
      <point x="653.0" y="-41.0"/>
      <point x="653" y="61" type="curve" smooth="yes"/>
      <point x="653" y="248" type="line"/>
      <point x="513" y="248" type="line"/>
    </contour>
    <contour>
      <point x="213" y="484" type="curve"/>
      <point x="177" y="433" type="line"/>
      <point x="258" y="299" type="line" smooth="yes"/>
      <point x="327" y="184"/>
      <point x="389" y="161"/>
      <point x="533" y="161" type="curve" smooth="yes"/>
      <point x="653" y="161" type="line"/>
      <point x="653" y="247" type="line"/>
      <point x="590" y="247"/>
      <point x="533.0" y="263.0"/>
      <point x="533" y="361" type="curve" smooth="yes"/>
      <point x="533" y="388" type="line" smooth="yes"/>
      <point x="533.0" y="486.0"/>
      <point x="592" y="502"/>
      <point x="655" y="502" type="curve"/>
      <point x="655" y="750" type="line"/>
      <point x="486" y="750"/>
      <point x="428" y="702"/>
      <point x="440" y="325" type="curve"/>
      <point x="481" y="335" type="line"/>
      <point x="198" y="750" type="line"/>
      <point x="35" y="750" type="line"/>
      <point x="2" y="502" type="line"/>
      <point x="65" y="502"/>
      <point x="122.0" y="486.0"/>
      <point x="122" y="388" type="curve" smooth="yes"/>
      <point x="122" y="361" type="line" smooth="yes"/>
      <point x="122.0" y="263.0"/>
      <point x="63" y="247"/>
      <point x="0" y="247" type="curve"/>
      <point x="0" y="-1" type="line"/>
      <point x="169" y="-1"/>
      <point x="234" y="52"/>
    </contour>
  </outline>
</glyph>
<glyph name="oe" format="2">
  <advance width="970"/>
  <unicode hex="0153"/>
  <outline>
    <contour>
      <point x="876" y="363" type="line"/>
      <point x="876" y="299"/>
      <point x="811" y="232"/>
      <point x="679" y="232" type="curve" smooth="yes"/>
      <point x="554" y="232"/>
      <point x="490" y="316"/>
      <point x="490" y="393" type="curve"/>
      <point x="929" y="393" type="line"/>
      <point x="929" y="393"/>
      <point x="944" y="648"/>
      <point x="679" y="648" type="curve" smooth="yes"/>
      <point x="614" y="648"/>
      <point x="548" y="632"/>
      <point x="497" y="590" type="curve"/>
      <point x="444" y="638"/>
      <point x="372" y="656"/>
      <point x="294" y="656" type="curve"/>
      <point x="133" y="656"/>
      <point x="0" y="584"/>
      <point x="0" y="323" type="curve"/>
      <point x="0" y="62"/>
      <point x="133" y="-11"/>
      <point x="294" y="-11" type="curve"/>
      <point x="370" y="-11"/>
      <point x="440" y="6"/>
      <point x="493" y="51" type="curve"/>
      <point x="545" y="6"/>
      <point x="612" y="-10"/>
      <point x="679" y="-10" type="curve"/>
      <point x="895" y="-10"/>
      <point x="930" y="118"/>
      <point x="930" y="118" type="curve"/>
      <point x="930" y="363" type="line"/>
    </contour>
    <contour>
      <point x="493" y="437" type="line"/>
      <point x="493" y="437"/>
      <point x="493" y="543"/>
      <point x="608" y="543" type="curve" smooth="yes"/>
      <point x="721" y="543"/>
      <point x="721" y="437"/>
      <point x="721" y="437" type="curve"/>
    </contour>
    <contour>
      <point x="82" y="332" type="curve"/>
      <point x="82" y="405"/>
      <point x="154" y="425"/>
      <point x="239" y="425" type="curve"/>
      <point x="325" y="425"/>
      <point x="396" y="405"/>
      <point x="396" y="332" type="curve"/>
      <point x="396" y="259"/>
      <point x="325" y="238"/>
      <point x="239" y="238" type="curve"/>
      <point x="154" y="238"/>
      <point x="82" y="259"/>
    </contour>
  </outline>
</glyph>
<glyph name="dotlessj" format="2">
  <advance width="242"/>
  <unicode hex="0237"/>
  <outline>
    <contour>
      <point x="62" y="203" type="line" smooth="yes"/>
      <point x="62" y="143"/>
      <point x="14" y="136"/>
      <point x="0" y="136" type="curve"/>
      <point x="0" y="-112" type="line"/>
      <point x="29" y="-112" type="line" smooth="yes"/>
      <point x="131" y="-112"/>
      <point x="202" y="-41"/>
      <point x="202" y="61" type="curve" smooth="yes"/>
      <point x="202" y="640" type="line"/>
      <point x="0" y="640" type="line"/>
      <point x="0" y="392" type="line"/>
      <point x="14" y="392"/>
      <point x="62" y="385"/>
      <point x="62" y="325" type="curve" smooth="yes"/>
    </contour>
  </outline>
</glyph>
<glyph name="breve" format="2">
  <advance width="314"/>
  <unicode hex="02D8"/>
  <guideline x="157.0" y="0" angle="90.0" identifier="lHA5zhsvLg"/>
  <outline>
    <contour>
      <point x="157" y="793" type="curve"/>
      <point x="91" y="793"/>
      <point x="52" y="835"/>
      <point x="52" y="888" type="curve"/>
      <point x="20" y="868" type="line"/>
      <point x="20" y="788"/>
      <point x="121" y="781"/>
      <point x="157" y="781" type="curve"/>
      <point x="193" y="781"/>
      <point x="294" y="788"/>
      <point x="294" y="868" type="curve"/>
      <point x="262" y="888" type="line"/>
      <point x="262" y="835"/>
      <point x="223" y="793"/>
    </contour>
  </outline>
</glyph>
<glyph name="hungarumlaut" format="2">
  <advance width="314"/>
  <unicode hex="02DD"/>
  <outline>
    <contour>
      <point x="260" y="861" type="curve"/>
      <point x="235" y="888" type="line"/>
      <point x="204" y="851"/>
      <point x="171" y="818"/>
      <point x="134" y="789" type="curve"/>
      <point x="141" y="780" type="line"/>
      <point x="178" y="808"/>
      <point x="217" y="839"/>
    </contour>
    <contour>
      <point x="180" y="861" type="curve"/>
      <point x="155" y="888" type="line"/>
      <point x="124" y="851"/>
      <point x="91" y="818"/>
      <point x="54" y="789" type="curve"/>
      <point x="61" y="780" type="line"/>
      <point x="98" y="808"/>
      <point x="137" y="839"/>
    </contour>
  </outline>
</glyph>
<glyph name="mu" format="2">
  <advance width="662"/>
  <unicode hex="03BC"/>
  <outline>
    <contour>
      <point x="62" y="-112" type="line"/>
      <point x="253" y="-112" type="line"/>
      <point x="253" y="-46" type="line"/>
      <point x="188" y="-44"/>
      <point x="140" y="-16"/>
      <point x="111" y="16" type="curve"/>
      <point x="111" y="107" type="line"/>
      <point x="62" y="326" type="line"/>
    </contour>
    <contour>
      <point x="622" y="2" type="line"/>
      <point x="622" y="249" type="line"/>
      <point x="609" y="249"/>
      <point x="560" y="267"/>
      <point x="560" y="329" type="curve" smooth="yes"/>
      <point x="560" y="344" type="line" smooth="yes"/>
      <point x="560" y="404"/>
      <point x="608" y="412"/>
      <point x="622" y="412" type="curve"/>
      <point x="622" y="640" type="line"/>
      <point x="287" y="640" type="line"/>
      <point x="287" y="412" type="line"/>
      <point x="420" y="412" type="line"/>
      <point x="420" y="321" type="line"/>
      <point x="420" y="283"/>
      <point x="401" y="237"/>
      <point x="338" y="237" type="curve" smooth="yes"/>
      <point x="284" y="237"/>
      <point x="253" y="266"/>
      <point x="253" y="321" type="curve" smooth="yes"/>
      <point x="253" y="469" type="line" smooth="yes"/>
      <point x="253" y="576"/>
      <point x="178" y="640"/>
      <point x="71" y="640" type="curve" smooth="yes"/>
      <point x="0" y="640" type="line"/>
      <point x="0" y="412" type="line"/>
      <point x="14" y="412"/>
      <point x="62" y="406"/>
      <point x="62" y="342" type="curve" smooth="yes"/>
      <point x="62" y="228" type="line" smooth="yes"/>
      <point x="62" y="92"/>
      <point x="103" y="-10"/>
      <point x="253" y="-10" type="curve" smooth="yes"/>
      <point x="374" y="-10"/>
      <point x="450" y="105"/>
      <point x="443" y="264" type="curve"/>
      <point x="463" y="264" type="line"/>
      <point x="463" y="2" type="line"/>
    </contour>
  </outline>
</glyph>
<glyph name="dagger" format="2">
  <advance width="452"/>
  <unicode hex="2020"/>
  <outline>
    <contour>
      <point x="293" y="174" type="curve" smooth="yes"/>
      <point x="216" y="340" type="line"/>
      <point x="216" y="412" type="line"/>
      <point x="293" y="578" type="line" smooth="yes"/>
      <point x="314" y="624"/>
      <point x="294" y="715"/>
      <point x="206" y="715" type="curve"/>
      <point x="117" y="715"/>
      <point x="98" y="623"/>
      <point x="119" y="578" type="curve" smooth="yes"/>
      <point x="197" y="412" type="line"/>
      <point x="197" y="340" type="line"/>
      <point x="119" y="174" type="line" smooth="yes"/>
      <point x="98" y="129"/>
      <point x="117" y="37"/>
      <point x="206" y="37" type="curve"/>
      <point x="294" y="37"/>
      <point x="314" y="128"/>
    </contour>
    <component base="minus" yOffset="-7"/>
  </outline>
</glyph>
<glyph name="perthousand" format="2">
  <advance width="1044"/>
  <unicode hex="2030"/>
  <guideline x="681" y="299" angle="90" identifier="AcqnrnsILh"/>
  <guideline x="692" y="299" angle="90" identifier="K0uNLu2kYZ"/>
  <guideline x="707" y="368" angle="90" identifier="DhaNMJp4J1"/>
  <guideline x="664" y="365" angle="90" identifier="qGNOe8QXEu"/>
  <outline>
    <contour>
      <point x="386" y="564" type="curve"/>
      <point x="386" y="566" type="line"/>
      <point x="386" y="588"/>
      <point x="385" y="609"/>
      <point x="381" y="629" type="curve"/>
      <point x="390" y="635" type="line"/>
      <point x="396" y="630"/>
      <point x="441" y="589"/>
      <point x="496" y="589" type="curve" smooth="yes"/>
      <point x="581" y="589"/>
      <point x="632" y="702"/>
      <point x="702" y="703" type="curve"/>
      <point x="702" y="688" type="line"/>
      <point x="650" y="673"/>
      <point x="591" y="603"/>
      <point x="548" y="559" type="curve" smooth="yes"/>
      <point x="347" y="358" type="line" smooth="yes"/>
      <point x="241" y="252"/>
      <point x="188" y="210"/>
      <point x="50" y="74" type="curve"/>
      <point x="75" y="49" type="line"/>
      <point x="211" y="187"/>
      <point x="259" y="235"/>
      <point x="365" y="341" type="curve"/>
      <point x="582" y="558" type="line" smooth="yes"/>
      <point x="626" y="601"/>
      <point x="664" y="664"/>
      <point x="722" y="664" type="curve"/>
      <point x="722" y="728" type="line"/>
      <point x="621" y="728"/>
      <point x="571" y="614"/>
      <point x="496" y="614" type="curve" smooth="yes"/>
      <point x="440" y="614"/>
      <point x="385" y="664"/>
      <point x="350" y="702" type="curve"/>
      <point x="322" y="738"/>
      <point x="274" y="761"/>
      <point x="194" y="761" type="curve"/>
      <point x="31" y="761"/>
      <point x="0" y="671"/>
      <point x="0" y="565" type="curve"/>
      <point x="0" y="460"/>
      <point x="31" y="372"/>
      <point x="192" y="371" type="curve"/>
      <point x="196" y="371" type="line"/>
      <point x="353" y="371"/>
      <point x="386" y="459"/>
    </contour>
    <contour>
      <point x="248" y="565" type="curve"/>
      <point x="248" y="538"/>
      <point x="240" y="511"/>
      <point x="194" y="511" type="curve"/>
      <point x="146" y="511"/>
      <point x="138" y="538"/>
      <point x="138" y="565" type="curve"/>
      <point x="138" y="594"/>
      <point x="146" y="621"/>
      <point x="194" y="621" type="curve"/>
      <point x="240" y="621"/>
      <point x="248" y="594"/>
    </contour>
    <contour>
      <point x="1004" y="173" type="curve"/>
      <point x="1004" y="175" type="line"/>
      <point x="1004" y="281"/>
      <point x="971" y="370"/>
      <point x="812" y="370" type="curve"/>
      <point x="768" y="370"/>
      <point x="733" y="363"/>
      <point x="707" y="352" type="curve"/>
      <point x="692" y="270" type="line"/>
      <point x="681" y="270" type="line"/>
      <point x="664" y="352" type="line"/>
      <point x="638" y="364"/>
      <point x="604" y="370"/>
      <point x="560" y="370" type="curve"/>
      <point x="397" y="370"/>
      <point x="366" y="280"/>
      <point x="366" y="174" type="curve"/>
      <point x="366" y="69"/>
      <point x="397" y="-19"/>
      <point x="558" y="-20" type="curve"/>
      <point x="562" y="-20" type="line"/>
      <point x="604" y="-20"/>
      <point x="638" y="-12"/>
      <point x="664" y="-2" type="curve"/>
      <point x="681" y="78" type="line"/>
      <point x="692" y="78" type="line"/>
      <point x="707" y="-3" type="line"/>
      <point x="734" y="-14"/>
      <point x="767" y="-20"/>
      <point x="810" y="-20" type="curve"/>
      <point x="814" y="-20" type="line"/>
      <point x="971" y="-20"/>
      <point x="1004" y="68"/>
    </contour>
    <contour>
      <point x="866" y="174" type="curve"/>
      <point x="866" y="147"/>
      <point x="858" y="120"/>
      <point x="812" y="120" type="curve"/>
      <point x="764" y="120"/>
      <point x="756" y="147"/>
      <point x="756" y="174" type="curve"/>
      <point x="756" y="203"/>
      <point x="764" y="230"/>
      <point x="812" y="230" type="curve"/>
      <point x="858" y="230"/>
      <point x="866" y="203"/>
    </contour>
    <contour>
      <point x="614" y="174" type="curve"/>
      <point x="614" y="147"/>
      <point x="606" y="120"/>
      <point x="560" y="120" type="curve"/>
      <point x="512" y="120"/>
      <point x="504" y="147"/>
      <point x="504" y="174" type="curve"/>
      <point x="504" y="203"/>
      <point x="512" y="230"/>
      <point x="560" y="230" type="curve"/>
      <point x="606" y="230"/>
      <point x="614" y="203"/>
    </contour>
  </outline>
</glyph>
<glyph name="Euro" format="2">
  <advance width="712"/>
  <unicode hex="20AC"/>
  <guideline x="532" y="406" angle="0" identifier="edspz4Uf1Q"/>
  <guideline x="545" y="373" angle="0" identifier="xf99sOGSSN"/>
  <outline>
    <contour>
      <point x="451" y="395" type="curve"/>
      <point x="451" y="427" type="line"/>
      <point x="394" y="425"/>
      <point x="291" y="425"/>
      <point x="212" y="425" type="curve" smooth="yes"/>
      <point x="134" y="425"/>
      <point x="100" y="425"/>
      <point x="0" y="427" type="curve"/>
      <point x="0" y="395" type="line"/>
      <point x="100" y="397"/>
      <point x="134" y="397"/>
      <point x="212" y="397" type="curve" smooth="yes"/>
      <point x="291" y="397"/>
      <point x="394" y="397"/>
    </contour>
    <contour>
      <point x="451" y="332" type="curve"/>
      <point x="451" y="364" type="line"/>
      <point x="394" y="362"/>
      <point x="291" y="362"/>
      <point x="212" y="362" type="curve" smooth="yes"/>
      <point x="134" y="362"/>
      <point x="100" y="362"/>
      <point x="0" y="364" type="curve"/>
      <point x="0" y="332" type="line"/>
      <point x="100" y="334"/>
      <point x="134" y="334"/>
      <point x="212" y="334" type="curve" smooth="yes"/>
      <point x="291" y="334"/>
      <point x="394" y="334"/>
    </contour>
    <contour>
      <point x="142" y="412" type="line"/>
      <point x="162" y="485"/>
      <point x="242" y="506"/>
      <point x="352" y="506" type="curve" smooth="yes"/>
      <point x="513" y="506"/>
      <point x="603" y="407"/>
      <point x="603" y="407" type="curve"/>
      <point x="670" y="407" type="line"/>
      <point x="670" y="750" type="line"/>
      <point x="628" y="758"/>
      <point x="568" y="774"/>
      <point x="489" y="736" type="curve"/>
      <point x="473" y="745"/>
      <point x="424" y="761"/>
      <point x="352" y="761" type="curve" smooth="yes"/>
      <point x="194" y="761"/>
      <point x="60" y="684"/>
      <point x="49" y="412" type="curve"/>
    </contour>
    <contour>
      <point x="608" y="373" type="line"/>
      <point x="608" y="298"/>
      <point x="554" y="245"/>
      <point x="352" y="245" type="curve" smooth="yes"/>
      <point x="236" y="245"/>
      <point x="154" y="268"/>
      <point x="140" y="350" type="curve"/>
      <point x="48" y="350" type="line"/>
      <point x="56" y="67"/>
      <point x="192" y="-10"/>
      <point x="352" y="-10" type="curve"/>
      <point x="605" y="-10"/>
      <point x="672" y="140"/>
      <point x="672" y="140" type="curve"/>
      <point x="672" y="373" type="line"/>
    </contour>
  </outline>
</glyph>
<glyph name="hira:a" format="2">
  <advance width="962"/>
  <unicode hex="3042"/>
  <outline>
    <contour>
      <point x="337" y="262" type="curve"/>
      <point x="334" y="281"/>
      <point x="327" y="344"/>
      <point x="326" y="356" type="curve"/>
      <point x="364" y="369"/>
      <point x="429" y="387"/>
      <point x="495" y="396" type="curve"/>
      <point x="454" y="355"/>
      <point x="397" y="307"/>
    </contour>
    <contour>
      <point x="55" y="120"/>
      <point x="42" y="128"/>
      <point x="42" y="144" type="curve" smooth="yes"/>
      <point x="42" y="209"/>
      <point x="203" y="303"/>
      <point x="269" y="337" type="curve"/>
      <point x="273" y="305"/>
      <point x="284" y="229"/>
      <point x="285" y="224" type="curve"/>
      <point x="202" y="166"/>
      <point x="131" y="120"/>
      <point x="76" y="120" type="curve" smooth="yes"/>
    </contour>
    <contour>
      <point x="727" y="424" type="curve"/>
      <point x="760" y="468" type="line"/>
      <point x="557" y="468" type="line"/>
      <point x="545" y="449" type="line"/>
      <point x="535" y="449"/>
      <point x="408" y="447"/>
      <point x="321" y="416" type="curve"/>
      <point x="321" y="425"/>
      <point x="320" y="434"/>
      <point x="320" y="443" type="curve"/>
      <point x="320" y="474"/>
      <point x="346" y="502"/>
      <point x="390" y="502" type="curve" smooth="yes"/>
      <point x="817" y="502" type="line"/>
      <point x="817" y="750" type="line"/>
      <point x="331" y="750" type="line"/>
      <point x="333" y="767"/>
      <point x="335" y="780"/>
      <point x="336" y="792" type="curve"/>
      <point x="278" y="792" type="line"/>
      <point x="276" y="780"/>
      <point x="275" y="766"/>
      <point x="273" y="750" type="curve"/>
      <point x="61" y="750" type="line"/>
      <point x="11" y="466" type="line"/>
      <point x="161" y="466" type="line"/>
      <point x="161" y="466"/>
      <point x="164" y="502"/>
      <point x="219" y="502" type="curve" smooth="yes"/>
      <point x="261" y="502" type="line"/>
      <point x="261" y="468"/>
      <point x="262" y="434"/>
      <point x="264" y="398" type="curve"/>
      <point x="178" y="362"/>
      <point x="0" y="256"/>
      <point x="0" y="124" type="curve" smooth="yes"/>
      <point x="0" y="42"/>
      <point x="42" y="-10"/>
      <point x="133" y="-10" type="curve" smooth="yes"/>
      <point x="203" y="-10"/>
      <point x="265" y="15"/>
      <point x="328" y="58" type="curve"/>
      <point x="334" y="39"/>
      <point x="342" y="18"/>
      <point x="350" y="0" type="curve"/>
      <point x="414" y="0" type="line"/>
      <point x="401" y="27"/>
      <point x="389" y="58"/>
      <point x="379" y="88" type="curve"/>
      <point x="490" y="159"/>
      <point x="615" y="280"/>
      <point x="694" y="381" type="curve"/>
      <point x="721" y="365"/>
      <point x="739" y="351"/>
      <point x="739" y="313" type="curve" smooth="yes"/>
      <point x="739" y="263"/>
      <point x="672" y="249"/>
      <point x="606" y="249" type="curve"/>
      <point x="606" y="1" type="line"/>
      <point x="748" y="1"/>
      <point x="842" y="68"/>
      <point x="842" y="232" type="curve" smooth="yes"/>
      <point x="842" y="318"/>
      <point x="777" y="404"/>
    </contour>
  </outline>
</glyph>
<glyph name="hira:i" format="2">
  <advance width="858"/>
  <unicode hex="3044"/>
  <outline>
    <contour>
      <point x="390" y="370" type="line"/>
      <point x="390" y="135" type="line"/>
      <point x="364" y="76"/>
      <point x="304" y="-9"/>
      <point x="177" y="-9" type="curve" smooth="yes"/>
      <point x="51" y="-9"/>
      <point x="0" y="88"/>
      <point x="0" y="179" type="curve" smooth="yes"/>
      <point x="0" y="314"/>
      <point x="98" y="348"/>
      <point x="98" y="441" type="curve" smooth="yes"/>
      <point x="98" y="485"/>
      <point x="85" y="500"/>
      <point x="53" y="500" type="curve"/>
      <point x="101" y="748" type="line"/>
      <point x="279" y="748" type="line"/>
      <point x="279" y="500" type="line"/>
      <point x="212" y="500"/>
      <point x="141" y="453"/>
      <point x="141" y="353" type="curve" smooth="yes"/>
      <point x="141" y="302"/>
      <point x="165" y="239"/>
      <point x="233" y="239" type="curve" smooth="yes"/>
      <point x="338" y="239"/>
      <point x="332" y="370"/>
      <point x="332" y="370" type="curve"/>
    </contour>
    <contour>
      <point x="738" y="246" type="line"/>
      <point x="709" y="454"/>
      <point x="682" y="632"/>
      <point x="624" y="779" type="curve"/>
      <point x="493" y="750" type="line"/>
      <point x="542" y="609"/>
      <point x="530" y="404"/>
      <point x="494" y="246" type="curve"/>
    </contour>
  </outline>
</glyph>
<glyph name="hira:u" format="2">
  <advance width="889"/>
  <unicode hex="3046"/>
  <outline>
    <contour>
      <point x="734" y="750" type="line"/>
      <point x="55" y="750" type="line"/>
      <point x="6" y="467" type="line"/>
      <point x="156" y="467" type="line"/>
      <point x="156" y="475"/>
      <point x="178" y="503"/>
      <point x="236" y="503" type="curve" smooth="yes"/>
      <point x="734" y="503" type="line"/>
    </contour>
    <contour>
      <point x="339" y="242" type="curve" smooth="yes"/>
      <point x="409" y="242"/>
      <point x="713" y="244"/>
      <point x="713" y="288" type="curve" smooth="yes"/>
      <point x="713" y="312"/>
      <point x="652" y="335"/>
      <point x="546" y="335" type="curve" smooth="yes"/>
      <point x="401" y="335"/>
      <point x="218" y="283"/>
      <point x="218" y="283" type="curve"/>
      <point x="218" y="438" type="line"/>
      <point x="218" y="438"/>
      <point x="367" y="473"/>
      <point x="498" y="473" type="curve" smooth="yes"/>
      <point x="673" y="473"/>
      <point x="769" y="412"/>
      <point x="769" y="265" type="curve" smooth="yes"/>
      <point x="769" y="122"/>
      <point x="669" y="-11"/>
      <point x="380" y="-11" type="curve" smooth="yes"/>
      <point x="266" y="-11"/>
      <point x="66" y="-1"/>
      <point x="0" y="136" type="curve"/>
      <point x="0" y="373" type="line"/>
      <point x="75" y="373" type="line"/>
      <point x="75" y="345"/>
      <point x="81" y="242"/>
    </contour>
  </outline>
</glyph>
<glyph name="hira:e" format="2">
  <advance width="864"/>
  <unicode hex="3048"/>
  <outline>
    <contour>
      <point x="48" y="751" type="line"/>
      <point x="5" y="503" type="line"/>
      <point x="744" y="504" type="line"/>
      <point x="744" y="751" type="line"/>
    </contour>
    <contour>
      <point x="2" y="467" type="line"/>
      <point x="2" y="325" type="line"/>
      <point x="401" y="325" type="line"/>
      <point x="401" y="302" type="line"/>
      <point x="0" y="247" type="line"/>
      <point x="0" y="0" type="line"/>
      <point x="256" y="0" type="line"/>
      <point x="256" y="170" type="line" smooth="yes"/>
      <point x="256" y="195"/>
      <point x="289" y="206"/>
      <point x="304" y="186" type="curve" smooth="yes"/>
      <point x="364" y="106"/>
      <point x="491" y="1"/>
      <point x="744" y="1" type="curve"/>
      <point x="744" y="195" type="line"/>
      <point x="744" y="224" type="line"/>
      <point x="744" y="249" type="line"/>
      <point x="608" y="249" type="line"/>
      <point x="608" y="246"/>
      <point x="576" y="220"/>
      <point x="522" y="220" type="curve" smooth="yes"/>
      <point x="482" y="220"/>
      <point x="440" y="234"/>
      <point x="440" y="268" type="curve" smooth="yes"/>
      <point x="440" y="336"/>
      <point x="565" y="324"/>
      <point x="744" y="324" type="curve"/>
      <point x="744" y="388" type="line"/>
      <point x="744" y="414" type="line"/>
      <point x="744" y="467" type="line"/>
    </contour>
  </outline>
</glyph>
<glyph name="hira:o" format="2">
  <advance width="882"/>
  <unicode hex="304A"/>
  <outline>
    <contour>
      <point x="142" y="220" type="curve"/>
      <point x="142" y="220" type="line"/>
      <point x="103" y="220"/>
      <point x="71" y="224"/>
      <point x="71" y="278" type="curve" smooth="yes"/>
      <point x="71" y="322"/>
      <point x="103" y="326"/>
      <point x="142" y="326" type="curve" smooth="yes"/>
      <point x="164" y="326"/>
      <point x="218" y="326"/>
      <point x="218" y="326" type="curve"/>
      <point x="218" y="278" type="line" smooth="yes"/>
      <point x="218" y="224"/>
      <point x="182" y="220"/>
    </contour>
    <contour>
      <point x="507" y="475" type="curve" smooth="yes"/>
      <point x="366" y="475"/>
      <point x="292" y="334"/>
      <point x="292" y="334" type="curve"/>
      <point x="276" y="334" type="line"/>
      <point x="276" y="450" type="line"/>
      <point x="276" y="489" type="line"/>
      <point x="276" y="502" type="line"/>
      <point x="471" y="502" type="line"/>
      <point x="471" y="750" type="line"/>
      <point x="276" y="750" type="line"/>
      <point x="276" y="793" type="line"/>
      <point x="218" y="793" type="line"/>
      <point x="218" y="750" type="line"/>
      <point x="40" y="750" type="line"/>
      <point x="0" y="502" type="line"/>
      <point x="218" y="502" type="line"/>
      <point x="218" y="469" type="line"/>
      <point x="204" y="472"/>
      <point x="189" y="473"/>
      <point x="172" y="473" type="curve" smooth="yes"/>
      <point x="59" y="473"/>
      <point x="7" y="378"/>
      <point x="3" y="260" type="curve" smooth="yes"/>
      <point x="0" y="142"/>
      <point x="35" y="-9"/>
      <point x="143" y="-9" type="curve" smooth="yes"/>
      <point x="262" y="-9"/>
      <point x="296" y="107"/>
      <point x="296" y="193" type="curve" smooth="yes"/>
      <point x="296" y="252" type="line" smooth="yes"/>
      <point x="296" y="318"/>
      <point x="395" y="336"/>
      <point x="463" y="336" type="curve" smooth="yes"/>
      <point x="583" y="336"/>
      <point x="647" y="315"/>
      <point x="647" y="274" type="curve" smooth="yes"/>
      <point x="647" y="245"/>
      <point x="608" y="220"/>
      <point x="536" y="220" type="curve" smooth="yes"/>
      <point x="491" y="220"/>
      <point x="465" y="233"/>
      <point x="462" y="248" type="curve"/>
      <point x="326" y="248" type="line"/>
      <point x="326" y="0" type="line"/>
      <point x="471" y="0" type="line" smooth="yes"/>
      <point x="650" y="0"/>
      <point x="722" y="140"/>
      <point x="722" y="264" type="curve" smooth="yes"/>
      <point x="722" y="407"/>
      <point x="616" y="475"/>
    </contour>
    <contour>
      <point x="720" y="560" type="line"/>
      <point x="633" y="763" type="line"/>
      <point x="500" y="715" type="line"/>
      <point x="553" y="499" type="line"/>
    </contour>
  </outline>
</glyph>
<glyph name="hira:ka" format="2">
  <advance width="879"/>
  <unicode hex="304B"/>
  <outline>
    <contour>
      <point x="539" y="715" type="line"/>
      <point x="592" y="499" type="line"/>
      <point x="759" y="560" type="line"/>
      <point x="672" y="763" type="line"/>
    </contour>
    <contour>
      <point x="355" y="760" type="curve" smooth="yes"/>
      <point x="236" y="760"/>
      <point x="236" y="545"/>
      <point x="236" y="545" type="curve"/>
      <point x="216" y="545" type="line"/>
      <point x="214" y="663"/>
      <point x="212" y="793"/>
      <point x="212" y="793" type="curve"/>
      <point x="157" y="793" type="line"/>
      <point x="156" y="750" type="line"/>
      <point x="53" y="750" type="line"/>
      <point x="13" y="503" type="line"/>
      <point x="41" y="503" type="line"/>
      <point x="148" y="503" type="line"/>
      <point x="133" y="373"/>
      <point x="93" y="248"/>
      <point x="0" y="248" type="curve"/>
      <point x="0" y="0" type="line"/>
      <point x="31" y="1"/>
      <point x="217" y="-31"/>
      <point x="217" y="409" type="curve" smooth="yes"/>
      <point x="217" y="434"/>
      <point x="217" y="467"/>
      <point x="217" y="503" type="curve"/>
      <point x="360" y="503" type="line" smooth="yes"/>
      <point x="460" y="503"/>
      <point x="491" y="437"/>
      <point x="491" y="362" type="curve" smooth="yes"/>
      <point x="491" y="264"/>
      <point x="462" y="221"/>
      <point x="424" y="221" type="curve" smooth="yes"/>
      <point x="378" y="221"/>
      <point x="372" y="249"/>
      <point x="372" y="249" type="curve"/>
      <point x="244" y="249" type="line"/>
      <point x="244" y="0" type="line"/>
      <point x="244" y="0"/>
      <point x="272" y="1"/>
      <point x="323" y="1" type="curve" smooth="yes"/>
      <point x="510" y="1"/>
      <point x="559" y="197"/>
      <point x="559" y="392" type="curve" smooth="yes"/>
      <point x="559" y="697"/>
      <point x="461" y="760"/>
    </contour>
  </outline>
</glyph>
<glyph name="hira:gi" format="2">
  <advance width="901"/>
  <unicode hex="304E"/>
  <outline>
    <contour>
      <point x="328" y="208" type="curve" smooth="yes"/>
      <point x="280" y="208"/>
      <point x="43" y="222"/>
      <point x="43" y="289" type="curve"/>
      <point x="5" y="289" type="line"/>
      <point x="-13" y="176"/>
      <point x="34" y="47"/>
      <point x="227" y="2" type="curve" smooth="yes"/>
      <point x="303" y="-16"/>
      <point x="583" y="-39"/>
      <point x="645" y="58" type="curve"/>
      <point x="645" y="289" type="line"/>
      <point x="594" y="289" type="line"/>
      <point x="591" y="267"/>
      <point x="570" y="208"/>
    </contour>
    <contour>
      <point x="518" y="503" type="line"/>
      <point x="518" y="750" type="line"/>
      <point x="405" y="750" type="line"/>
      <point x="408" y="766"/>
      <point x="412" y="782"/>
      <point x="414" y="791" type="curve"/>
      <point x="356" y="791" type="line"/>
      <point x="353" y="782"/>
      <point x="349" y="766"/>
      <point x="345" y="750" type="curve"/>
      <point x="45" y="750" type="line"/>
      <point x="2" y="503" type="line"/>
      <point x="298" y="503" type="line"/>
      <point x="297" y="492"/>
      <point x="295" y="480"/>
      <point x="294" y="468" type="curve"/>
      <point x="0" y="468" type="line"/>
      <point x="0" y="325" type="line"/>
      <point x="283" y="325" type="line"/>
      <point x="283" y="302" type="line" smooth="yes"/>
      <point x="283" y="271"/>
      <point x="305" y="249"/>
      <point x="336" y="249" type="curve" smooth="yes"/>
      <point x="453" y="249" type="line"/>
      <point x="453" y="289" type="line"/>
      <point x="375" y="289" type="line" smooth="yes"/>
      <point x="354" y="289"/>
      <point x="354" y="325"/>
      <point x="375" y="325" type="curve" smooth="yes"/>
      <point x="741" y="325" type="line"/>
      <point x="741" y="468" type="line"/>
      <point x="363" y="468" type="line"/>
      <point x="364" y="480"/>
      <point x="365" y="491"/>
      <point x="366" y="503" type="curve"/>
    </contour>
    <component base="hira:voicedmarkkana" xOffset="546"/>
  </outline>
</glyph>
<glyph name="hira:ku" format="2">
  <advance width="692"/>
  <unicode hex="304F"/>
  <outline>
    <contour>
      <point x="212" y="387" type="line"/>
      <point x="532" y="502" type="line"/>
      <point x="532" y="749" type="line"/>
      <point x="344" y="749" type="line"/>
      <point x="344" y="749"/>
      <point x="306" y="425"/>
      <point x="0" y="425" type="curve"/>
      <point x="0" y="324" type="line"/>
      <point x="306" y="324"/>
      <point x="344" y="0"/>
      <point x="344" y="0" type="curve"/>
      <point x="532" y="0" type="line"/>
      <point x="532" y="247" type="line"/>
      <point x="212" y="363" type="line"/>
      <point x="168" y="363" type="line" smooth="yes"/>
      <point x="163" y="363"/>
      <point x="159" y="368"/>
      <point x="159" y="375" type="curve" smooth="yes"/>
      <point x="159" y="381"/>
      <point x="163" y="387"/>
      <point x="168" y="387" type="curve" smooth="yes"/>
    </contour>
  </outline>
</glyph>
<glyph name="hira:gu" format="2">
  <advance width="908"/>
  <unicode hex="3050"/>
  <outline>
    <contour>
      <point x="212" y="387" type="line"/>
      <point x="532" y="502" type="line"/>
      <point x="532" y="749" type="line"/>
      <point x="344" y="749" type="line"/>
      <point x="344" y="749"/>
      <point x="306" y="425"/>
      <point x="0" y="425" type="curve"/>
      <point x="0" y="324" type="line"/>
      <point x="306" y="324"/>
      <point x="344" y="0"/>
      <point x="344" y="0" type="curve"/>
      <point x="532" y="0" type="line"/>
      <point x="532" y="247" type="line"/>
      <point x="212" y="363" type="line"/>
      <point x="168" y="363" type="line" smooth="yes"/>
      <point x="163" y="363"/>
      <point x="159" y="368"/>
      <point x="159" y="375" type="curve" smooth="yes"/>
      <point x="159" y="381"/>
      <point x="163" y="387"/>
      <point x="168" y="387" type="curve" smooth="yes"/>
    </contour>
    <component base="hira:voicedmarkkana" xOffset="554"/>
  </outline>
</glyph>
<glyph name="hira:ge" format="2">
  <advance width="998"/>
  <unicode hex="3052"/>
  <outline>
    <contour>
      <point x="0" y="502" type="line"/>
      <point x="40" y="502"/>
      <point x="53" y="475"/>
      <point x="53" y="443" type="curve" smooth="yes"/>
      <point x="53" y="205" type="line" smooth="yes"/>
      <point x="53" y="143"/>
      <point x="32" y="0"/>
      <point x="223" y="0" type="curve"/>
      <point x="223" y="248" type="line"/>
      <point x="170" y="248"/>
      <point x="127" y="291"/>
      <point x="127" y="368" type="curve" smooth="yes"/>
      <point x="127" y="437"/>
      <point x="160" y="502"/>
      <point x="223" y="502" type="curve"/>
      <point x="223" y="751" type="line"/>
      <point x="43" y="751" type="line"/>
    </contour>
    <contour>
      <point x="616" y="751" type="line"/>
      <point x="534" y="751" type="line"/>
      <point x="534" y="793" type="line"/>
      <point x="478" y="793" type="line"/>
      <point x="478" y="751" type="line"/>
      <point x="269" y="751" type="line"/>
      <point x="269" y="504" type="line"/>
      <point x="478" y="504" type="line"/>
      <point x="478" y="503" type="line" smooth="yes"/>
      <point x="478" y="249"/>
      <point x="362" y="248"/>
      <point x="269" y="248" type="curve"/>
      <point x="269" y="0" type="line"/>
      <point x="297" y="0"/>
      <point x="534" y="18"/>
      <point x="534" y="285" type="curve" smooth="yes"/>
      <point x="534" y="504" type="line"/>
      <point x="616" y="504" type="line"/>
    </contour>
    <component base="hira:voicedmarkkana" xOffset="644"/>
  </outline>
</glyph>
<glyph name="hira:go" format="2">
  <advance width="913"/>
  <unicode hex="3054"/>
  <outline>
    <contour>
      <point x="358" y="235" type="curve" smooth="yes"/>
      <point x="288" y="235"/>
      <point x="85" y="232"/>
      <point x="85" y="289" type="curve" smooth="yes"/>
      <point x="85" y="305"/>
      <point x="96" y="316"/>
      <point x="117" y="316" type="curve" smooth="yes"/>
      <point x="139" y="316" type="line"/>
      <point x="139" y="467" type="line"/>
      <point x="5" y="467" type="line"/>
      <point x="-12" y="306"/>
      <point x="-12" y="-21"/>
      <point x="358" y="-21" type="curve" smooth="yes"/>
      <point x="472" y="-21"/>
      <point x="651" y="3"/>
      <point x="738" y="128" type="curve"/>
      <point x="738" y="383" type="line"/>
      <point x="663" y="383" type="line"/>
      <point x="663" y="300"/>
      <point x="577" y="235"/>
    </contour>
    <contour>
      <point x="49" y="750" type="line"/>
      <point x="9" y="502" type="line"/>
      <point x="529" y="502" type="line"/>
      <point x="529" y="750" type="line"/>
    </contour>
    <component base="hira:voicedmarkkana" xOffset="559"/>
  </outline>
</glyph>
<glyph name="hira:za" format="2">
  <advance width="888"/>
  <unicode hex="3056"/>
  <outline>
    <contour>
      <point x="277" y="473" type="curve" smooth="yes"/>
      <point x="319" y="473"/>
      <point x="356" y="468"/>
      <point x="388" y="461" type="curve"/>
      <point x="384" y="473"/>
      <point x="382" y="486"/>
      <point x="382" y="499" type="curve" smooth="yes"/>
      <point x="382" y="503" type="line"/>
      <point x="289" y="503" type="line"/>
      <point x="37" y="503" type="line"/>
      <point x="86" y="750" type="line"/>
      <point x="382" y="750" type="line"/>
      <point x="382" y="790" type="line"/>
      <point x="440" y="790" type="line"/>
      <point x="440" y="750" type="line"/>
      <point x="606" y="750" type="line"/>
      <point x="606" y="467" type="line"/>
      <point x="517" y="467" type="line"/>
      <point x="517" y="467"/>
      <point x="520" y="503"/>
      <point x="462" y="503" type="curve" smooth="yes"/>
      <point x="440" y="503" type="line"/>
      <point x="440" y="499" type="line" smooth="yes"/>
      <point x="440" y="476"/>
      <point x="454" y="453"/>
      <point x="472" y="432" type="curve" smooth="yes"/>
      <point x="483" y="420"/>
      <point x="498" y="407"/>
      <point x="513" y="396" type="curve"/>
      <point x="513" y="283" type="line"/>
      <point x="393" y="283" type="line"/>
      <point x="298" y="367"/>
      <point x="57" y="353"/>
      <point x="57" y="294" type="curve" smooth="yes"/>
      <point x="57" y="246"/>
      <point x="247" y="240"/>
      <point x="408" y="240" type="curve" smooth="yes"/>
      <point x="652" y="240"/>
      <point x="692" y="323"/>
      <point x="692" y="375" type="curve"/>
      <point x="768" y="375" type="line"/>
      <point x="768" y="137" type="line"/>
      <point x="741" y="67"/>
      <point x="642" y="-9"/>
      <point x="408" y="-9" type="curve" smooth="yes"/>
      <point x="163" y="-9"/>
      <point x="0" y="110"/>
      <point x="0" y="294" type="curve" smooth="yes"/>
      <point x="0" y="370"/>
      <point x="62" y="473"/>
    </contour>
    <component base="hira:voicedmarkkana" xOffset="630"/>
  </outline>
</glyph>
<glyph name="hira:si" format="2">
  <advance width="900"/>
  <unicode hex="3057"/>
  <outline>
    <contour>
      <point x="665" y="394" type="line"/>
      <point x="665" y="311"/>
      <point x="579" y="242"/>
      <point x="360" y="242" type="curve" smooth="yes"/>
      <point x="180" y="242"/>
      <point x="142" y="311"/>
      <point x="142" y="373" type="curve" smooth="yes"/>
      <point x="142" y="475"/>
      <point x="265" y="503"/>
      <point x="279" y="503" type="curve"/>
      <point x="279" y="750" type="line"/>
      <point x="101" y="750" type="line"/>
      <point x="53" y="503" type="line"/>
      <point x="85" y="503"/>
      <point x="98" y="488"/>
      <point x="98" y="444" type="curve" smooth="yes"/>
      <point x="98" y="371"/>
      <point x="0" y="317"/>
      <point x="0" y="182" type="curve" smooth="yes"/>
      <point x="0" y="120"/>
      <point x="16" y="-10"/>
      <point x="360" y="-10" type="curve" smooth="yes"/>
      <point x="474" y="-10"/>
      <point x="653" y="14"/>
      <point x="740" y="139" type="curve"/>
      <point x="740" y="394" type="line"/>
    </contour>
  </outline>
</glyph>
<glyph name="hira:zu" format="2">
  <advance width="979"/>
  <unicode hex="305A"/>
  <outline>
    <contour>
      <point x="295" y="301" type="curve" smooth="yes"/>
      <point x="275" y="301"/>
      <point x="247" y="308"/>
      <point x="247" y="321" type="curve" smooth="yes"/>
      <point x="247" y="332"/>
      <point x="278" y="342"/>
      <point x="354" y="340" type="curve"/>
      <point x="346" y="313"/>
      <point x="321" y="301"/>
    </contour>
    <contour>
      <point x="413" y="479" type="curve"/>
      <point x="413" y="503" type="line"/>
      <point x="603" y="503" type="line"/>
      <point x="603" y="750" type="line"/>
      <point x="387" y="750" type="line"/>
      <point x="387" y="793" type="line"/>
      <point x="331" y="793" type="line"/>
      <point x="331" y="750" type="line"/>
      <point x="54" y="750" type="line"/>
      <point x="5" y="467" type="line"/>
      <point x="155" y="467" type="line"/>
      <point x="155" y="467"/>
      <point x="160" y="503"/>
      <point x="255" y="503" type="curve" smooth="yes"/>
      <point x="355" y="503" type="line"/>
      <point x="356" y="480" type="line"/>
      <point x="279" y="475"/>
      <point x="195" y="449"/>
      <point x="195" y="365" type="curve" smooth="yes"/>
      <point x="195" y="308"/>
      <point x="241" y="272"/>
      <point x="295" y="271" type="curve" smooth="yes"/>
      <point x="343" y="270"/>
      <point x="395" y="292"/>
      <point x="410" y="339" type="curve"/>
      <point x="544" y="339"/>
      <point x="711" y="334"/>
      <point x="711" y="298" type="curve" smooth="yes"/>
      <point x="711" y="259"/>
      <point x="628" y="240"/>
      <point x="386" y="240" type="curve" smooth="yes"/>
      <point x="153" y="240"/>
      <point x="76" y="300"/>
      <point x="76" y="375" type="curve"/>
      <point x="0" y="375" type="line"/>
      <point x="0" y="133" type="line"/>
      <point x="33" y="58"/>
      <point x="137" y="-9"/>
      <point x="386" y="-9" type="curve" smooth="yes"/>
      <point x="643" y="-9"/>
      <point x="767" y="144"/>
      <point x="767" y="285" type="curve" smooth="yes"/>
      <point x="767" y="446"/>
      <point x="593" y="479"/>
    </contour>
    <component base="hira:voicedmarkkana" xOffset="625"/>
  </outline>
</glyph>
<glyph name="hira:ze" format="2">
  <advance width="924"/>
  <unicode hex="305C"/>
  <outline>
    <contour>
      <point x="261" y="468" type="curve"/>
      <point x="261" y="297" type="line"/>
      <point x="261" y="297"/>
      <point x="324" y="278"/>
      <point x="380" y="278" type="curve" smooth="yes"/>
      <point x="474" y="277"/>
      <point x="586" y="302"/>
      <point x="586" y="412" type="curve" smooth="yes"/>
      <point x="586" y="502" type="line"/>
      <point x="644" y="502" type="line"/>
      <point x="644" y="750" type="line"/>
      <point x="586" y="750" type="line"/>
      <point x="586" y="794" type="line"/>
      <point x="530" y="794" type="line"/>
      <point x="530" y="750" type="line"/>
      <point x="147" y="750" type="line"/>
      <point x="147" y="794" type="line"/>
      <point x="92" y="794" type="line"/>
      <point x="92" y="750" type="line"/>
      <point x="43" y="750" type="line"/>
      <point x="0" y="502" type="line"/>
      <point x="40" y="502"/>
      <point x="73" y="477"/>
      <point x="73" y="445" type="curve" smooth="yes"/>
      <point x="73" y="250" type="line" smooth="yes"/>
      <point x="73" y="162"/>
      <point x="119" y="-9"/>
      <point x="378" y="-9" type="curve" smooth="yes"/>
      <point x="627" y="-9"/>
      <point x="743" y="79"/>
      <point x="764" y="133" type="curve"/>
      <point x="764" y="368" type="line"/>
      <point x="688" y="368" type="line"/>
      <point x="688" y="330"/>
      <point x="591" y="220"/>
      <point x="378" y="220" type="curve" smooth="yes"/>
      <point x="213" y="220"/>
      <point x="147" y="293"/>
      <point x="147" y="370" type="curve" smooth="yes"/>
      <point x="147" y="383"/>
      <point x="147" y="502"/>
      <point x="147" y="502" type="curve"/>
      <point x="530" y="502" type="line"/>
      <point x="530" y="463"/>
      <point x="459" y="451"/>
      <point x="388" y="450" type="curve" smooth="yes"/>
      <point x="334" y="450"/>
      <point x="281" y="457"/>
    </contour>
    <component base="hira:voicedmarkkana" xOffset="666"/>
  </outline>
</glyph>
<glyph name="hira:ti" format="2">
  <advance width="928"/>
  <unicode hex="3061"/>
  <outline>
    <contour>
      <point x="491" y="473" type="curve" smooth="yes"/>
      <point x="449" y="473"/>
      <point x="412" y="468"/>
      <point x="380" y="461" type="curve"/>
      <point x="384" y="473"/>
      <point x="386" y="486"/>
      <point x="386" y="499" type="curve" smooth="yes"/>
      <point x="386" y="503" type="line"/>
      <point x="479" y="503" type="line"/>
      <point x="731" y="503" type="line"/>
      <point x="731" y="749" type="line"/>
      <point x="386" y="750" type="line"/>
      <point x="386" y="790" type="line"/>
      <point x="328" y="790" type="line"/>
      <point x="328" y="750" type="line"/>
      <point x="54" y="750" type="line"/>
      <point x="5" y="467" type="line"/>
      <point x="154" y="467" type="line"/>
      <point x="154" y="467"/>
      <point x="158" y="503"/>
      <point x="246" y="503" type="curve" smooth="yes"/>
      <point x="328" y="503" type="line"/>
      <point x="328" y="499" type="line" smooth="yes"/>
      <point x="328" y="476"/>
      <point x="314" y="453"/>
      <point x="296" y="432" type="curve" smooth="yes"/>
      <point x="285" y="420"/>
      <point x="270" y="407"/>
      <point x="255" y="396" type="curve"/>
      <point x="255" y="283" type="line"/>
      <point x="375" y="283" type="line"/>
      <point x="470" y="367"/>
      <point x="711" y="353.0"/>
      <point x="711" y="294.0" type="curve" smooth="yes"/>
      <point x="711" y="246.0"/>
      <point x="521.0" y="240"/>
      <point x="360.0" y="240" type="curve" smooth="yes"/>
      <point x="116.0" y="240"/>
      <point x="76" y="323"/>
      <point x="76" y="375" type="curve"/>
      <point x="0" y="375" type="line"/>
      <point x="0" y="137" type="line"/>
      <point x="27" y="67"/>
      <point x="126.0" y="-9"/>
      <point x="360.0" y="-9" type="curve" smooth="yes"/>
      <point x="605.0" y="-9"/>
      <point x="768" y="110.0"/>
      <point x="768" y="294.0" type="curve" smooth="yes"/>
      <point x="768" y="370.0"/>
      <point x="706" y="473"/>
    </contour>
  </outline>
</glyph>
<glyph name="hira:ni" format="2">
  <advance width="864"/>
  <unicode hex="306B"/>
  <guideline x="528" y="468" angle="0" identifier="8TBmOSrlp0"/>
  <outline>
    <contour>
      <point x="101" y="750" type="line"/>
      <point x="53" y="504" type="line"/>
      <point x="93" y="504"/>
      <point x="98" y="477"/>
      <point x="98" y="445" type="curve" smooth="yes"/>
      <point x="98" y="350"/>
      <point x="0" y="281"/>
      <point x="0" y="182" type="curve" smooth="yes"/>
      <point x="0" y="121"/>
      <point x="59" y="1"/>
      <point x="250" y="1" type="curve"/>
      <point x="250" y="247" type="line"/>
      <point x="184" y="247"/>
      <point x="139" y="311"/>
      <point x="139" y="368" type="curve" smooth="yes"/>
      <point x="139" y="470"/>
      <point x="240" y="504"/>
      <point x="255" y="504" type="curve"/>
      <point x="295" y="750" type="line"/>
    </contour>
    <contour>
      <point x="330" y="750" type="line"/>
      <point x="290" y="502" type="line"/>
      <point x="744" y="502" type="line"/>
      <point x="744" y="750" type="line"/>
    </contour>
    <contour>
      <point x="519" y="247" type="curve" smooth="yes"/>
      <point x="473" y="247"/>
      <point x="363" y="257"/>
      <point x="363" y="296" type="curve" smooth="yes"/>
      <point x="363" y="337"/>
      <point x="418" y="326"/>
      <point x="418" y="326" type="curve"/>
      <point x="418" y="467" type="line"/>
      <point x="281" y="467" type="line"/>
      <point x="281" y="274"/>
      <point x="238" y="-8"/>
      <point x="495" y="-8" type="curve" smooth="yes"/>
      <point x="620" y="-8"/>
      <point x="717" y="68"/>
      <point x="744" y="138" type="curve"/>
      <point x="744" y="373" type="line"/>
      <point x="668" y="373" type="line"/>
      <point x="668" y="335"/>
      <point x="641" y="247"/>
    </contour>
  </outline>
</glyph>
<glyph name="hira:ha" format="2">
  <advance width="919"/>
  <unicode hex="306F"/>
  <guideline x="347" y="792" angle="0" identifier="mZ7YffKMLU"/>
  <outline>
    <contour>
      <point x="239" y="502" type="curve"/>
      <point x="279" y="749" type="line"/>
      <point x="101" y="749" type="line"/>
      <point x="53" y="502" type="line"/>
      <point x="93" y="502"/>
      <point x="98" y="475"/>
      <point x="98" y="443" type="curve" smooth="yes"/>
      <point x="98" y="348"/>
      <point x="0" y="279"/>
      <point x="0" y="181" type="curve" smooth="yes"/>
      <point x="0" y="119"/>
      <point x="47" y="-1"/>
      <point x="238" y="-1" type="curve"/>
      <point x="238" y="246" type="line"/>
      <point x="172" y="246"/>
      <point x="139" y="317"/>
      <point x="139" y="373" type="curve" smooth="yes"/>
      <point x="139" y="472"/>
      <point x="224" y="502"/>
    </contour>
    <contour>
      <point x="425" y="219" type="curve" smooth="yes"/>
      <point x="400" y="219"/>
      <point x="359" y="231"/>
      <point x="359" y="270" type="curve" smooth="yes"/>
      <point x="359" y="325"/>
      <point x="417" y="324"/>
      <point x="484" y="324" type="curve" smooth="yes"/>
      <point x="486" y="324"/>
      <point x="489" y="324"/>
      <point x="492" y="324" type="curve"/>
      <point x="492" y="315" type="line" smooth="yes"/>
      <point x="492" y="241"/>
      <point x="450" y="219"/>
    </contour>
    <contour>
      <point x="797" y="248" type="line"/>
      <point x="717" y="248"/>
      <point x="689" y="255"/>
      <point x="664" y="298" type="curve" smooth="yes"/>
      <point x="627" y="362"/>
      <point x="604" y="419"/>
      <point x="550" y="449" type="curve"/>
      <point x="550" y="501" type="line"/>
      <point x="744" y="502" type="line"/>
      <point x="744" y="749" type="line"/>
      <point x="550" y="749" type="line"/>
      <point x="550" y="792" type="line"/>
      <point x="492" y="792" type="line"/>
      <point x="492" y="749" type="line"/>
      <point x="328" y="749" type="line"/>
      <point x="288" y="501" type="line"/>
      <point x="492" y="501" type="line"/>
      <point x="492" y="468" type="line"/>
      <point x="478" y="471"/>
      <point x="462" y="472"/>
      <point x="445" y="472" type="curve" smooth="yes"/>
      <point x="332" y="472"/>
      <point x="280" y="377"/>
      <point x="277" y="259" type="curve" smooth="yes"/>
      <point x="273" y="141"/>
      <point x="308" y="-10"/>
      <point x="416" y="-10" type="curve" smooth="yes"/>
      <point x="535" y="-10"/>
      <point x="550" y="106"/>
      <point x="550" y="192" type="curve" smooth="yes"/>
      <point x="550" y="292" type="line"/>
      <point x="581" y="292" type="line"/>
      <point x="581" y="0" type="line"/>
      <point x="623" y="0" type="line"/>
      <point x="637" y="0" type="line"/>
      <point x="799" y="0" type="line"/>
      <point x="799" y="248" type="line"/>
    </contour>
  </outline>
</glyph>
<glyph name="hira:ba" format="2">
  <advance width="919"/>
  <unicode hex="3070"/>
  <outline>
    <contour>
      <point x="239" y="503" type="curve"/>
      <point x="279" y="750" type="line"/>
      <point x="101" y="750" type="line"/>
      <point x="53" y="503" type="line"/>
      <point x="93" y="503"/>
      <point x="98" y="478"/>
      <point x="98" y="446" type="curve" smooth="yes"/>
      <point x="98" y="351"/>
      <point x="0" y="282"/>
      <point x="0" y="184" type="curve" smooth="yes"/>
      <point x="0" y="122"/>
      <point x="47" y="2"/>
      <point x="238" y="2" type="curve"/>
      <point x="238" y="249" type="line"/>
      <point x="172" y="249"/>
      <point x="139" y="320"/>
      <point x="139" y="376" type="curve" smooth="yes"/>
      <point x="139" y="475"/>
      <point x="224" y="503"/>
    </contour>
    <contour>
      <point x="416" y="222" type="curve" smooth="yes"/>
      <point x="416" y="222"/>
      <point x="416" y="222"/>
      <point x="416" y="222" type="curve" smooth="yes"/>
      <point x="416" y="222"/>
      <point x="416" y="222"/>
      <point x="416" y="222" type="curve" smooth="yes"/>
      <point x="376" y="222"/>
      <point x="344" y="226"/>
      <point x="344" y="280" type="curve" smooth="yes"/>
      <point x="344" y="335"/>
      <point x="376" y="338"/>
      <point x="416" y="338" type="curve" smooth="yes"/>
      <point x="416" y="338"/>
      <point x="416" y="338"/>
      <point x="416" y="338" type="curve" smooth="yes"/>
      <point x="416" y="338"/>
      <point x="416" y="338"/>
      <point x="416" y="338" type="curve" smooth="yes"/>
      <point x="455" y="338"/>
      <point x="487" y="335"/>
      <point x="487" y="280" type="curve" smooth="yes"/>
      <point x="487" y="226"/>
      <point x="455" y="222"/>
    </contour>
    <contour>
      <point x="797" y="251" type="line"/>
      <point x="717" y="251"/>
      <point x="689" y="258"/>
      <point x="664" y="301" type="curve" smooth="yes"/>
      <point x="627" y="365"/>
      <point x="604" y="422"/>
      <point x="550" y="452" type="curve"/>
      <point x="550" y="502" type="line"/>
      <point x="624" y="502" type="line"/>
      <point x="624" y="750" type="line"/>
      <point x="550" y="750" type="line"/>
      <point x="550" y="793" type="line"/>
      <point x="492" y="793" type="line"/>
      <point x="492" y="750" type="line"/>
      <point x="313" y="750" type="line"/>
      <point x="273" y="502" type="line"/>
      <point x="492" y="502" type="line"/>
      <point x="492" y="471" type="line"/>
      <point x="478" y="474"/>
      <point x="462" y="475"/>
      <point x="445" y="475" type="curve" smooth="yes"/>
      <point x="332" y="475"/>
      <point x="280" y="380"/>
      <point x="277" y="262" type="curve" smooth="yes"/>
      <point x="273" y="144"/>
      <point x="308" y="-7"/>
      <point x="416" y="-7" type="curve" smooth="yes"/>
      <point x="535" y="-7"/>
      <point x="550" y="109"/>
      <point x="550" y="195" type="curve" smooth="yes"/>
      <point x="550" y="251" type="line"/>
      <point x="581" y="251" type="line"/>
      <point x="581" y="2" type="line"/>
      <point x="799" y="2" type="line"/>
      <point x="799" y="251" type="line"/>
    </contour>
    <component base="hira:voicedmarkkana" xOffset="640"/>
  </outline>
</glyph>
<glyph name="hira:n" format="2">
  <advance width="891"/>
  <unicode hex="3093"/>
  <outline>
    <contour>
      <point x="771" y="248" type="line"/>
      <point x="692" y="248" type="line" smooth="yes"/>
      <point x="655" y="248"/>
      <point x="619" y="264"/>
      <point x="619" y="322" type="curve" smooth="yes"/>
      <point x="619" y="394"/>
      <point x="589" y="471"/>
      <point x="488" y="471" type="curve" smooth="yes"/>
      <point x="346" y="471"/>
      <point x="280" y="298"/>
      <point x="280" y="298" type="curve"/>
      <point x="244" y="298" type="line"/>
      <point x="298" y="392" type="line" smooth="yes"/>
      <point x="361" y="491"/>
      <point x="436" y="503"/>
      <point x="511" y="503" type="curve"/>
      <point x="511" y="503" type="line"/>
      <point x="511" y="750" type="line"/>
      <point x="242" y="750" type="line"/>
      <point x="200" y="503" type="line"/>
      <point x="200" y="503" type="line"/>
      <point x="253" y="503"/>
      <point x="274" y="465"/>
      <point x="247" y="420" type="curve" smooth="yes"/>
      <point x="214" y="363" type="line" smooth="yes"/>
      <point x="172" y="292"/>
      <point x="96" y="248"/>
      <point x="13" y="248" type="curve" smooth="yes"/>
      <point x="0" y="248" type="line"/>
      <point x="0" y="0" type="line"/>
      <point x="55" y="0"/>
      <point x="17" y="1"/>
      <point x="146" y="1" type="curve" smooth="yes"/>
      <point x="275" y="1"/>
      <point x="311" y="92"/>
      <point x="311" y="156" type="curve"/>
      <point x="311" y="156"/>
      <point x="312" y="178"/>
      <point x="312" y="239" type="curve" smooth="yes"/>
      <point x="312" y="321"/>
      <point x="347" y="332"/>
      <point x="381" y="332" type="curve" smooth="yes"/>
      <point x="415" y="332"/>
      <point x="436" y="314"/>
      <point x="436" y="237" type="curve" smooth="yes"/>
      <point x="436" y="182"/>
      <point x="437" y="169"/>
      <point x="437" y="154" type="curve" smooth="yes"/>
      <point x="437" y="42"/>
      <point x="534" y="0"/>
      <point x="609" y="0" type="curve" smooth="yes"/>
      <point x="727" y="0"/>
      <point x="771" y="1"/>
      <point x="771" y="1" type="curve"/>
    </contour>
  </outline>
</glyph>
<glyph name="sym_acute_small" format="2">
  <advance width="258"/>
  <outline>
    <contour>
      <point x="40" y="866" type="curve"/>
      <point x="50" y="829" type="line"/>
      <point x="114" y="848"/>
      <point x="174" y="891"/>
      <point x="218" y="930" type="curve"/>
      <point x="212" y="949" type="line"/>
      <point x="168" y="914"/>
      <point x="113" y="887"/>
    </contour>
  </outline>
</glyph>
<glyph name="sym_asteriskbar" format="2">
  <advance width="138"/>
  <guideline x="103" y="757" angle="0" identifier="WE9ujD52WZ"/>
  <guideline x="111" y="79" angle="0" identifier="WOMf3uBsEy"/>
  <outline>
    <contour>
      <point x="156" y="216" type="curve" smooth="yes"/>
      <point x="79" y="382" type="line"/>
      <point x="79" y="392" type="line"/>
      <point x="90" y="396"/>
      <point x="97" y="406"/>
      <point x="97" y="418" type="curve" smooth="yes"/>
      <point x="97" y="430"/>
      <point x="90" y="440"/>
      <point x="79" y="444" type="curve"/>
      <point x="79" y="454" type="line"/>
      <point x="156" y="620" type="line" smooth="yes"/>
      <point x="177" y="666"/>
      <point x="157" y="757"/>
      <point x="69" y="757" type="curve"/>
      <point x="-20" y="757"/>
      <point x="-39" y="665"/>
      <point x="-18" y="620" type="curve" smooth="yes"/>
      <point x="60" y="454" type="line"/>
      <point x="60" y="444" type="line"/>
      <point x="49" y="441"/>
      <point x="41" y="431"/>
      <point x="41" y="419" type="curve" smooth="yes"/>
      <point x="41" y="406"/>
      <point x="49" y="395"/>
      <point x="60" y="392" type="curve"/>
      <point x="60" y="382" type="line"/>
      <point x="-18" y="216" type="line" smooth="yes"/>
      <point x="-39" y="171"/>
      <point x="-20" y="79"/>
      <point x="69" y="79" type="curve"/>
      <point x="157" y="79"/>
      <point x="177" y="170"/>
    </contour>
  </outline>
</glyph>
<glyph name="sym_commaaccent" format="2">
  <advance width="93"/>
  <outline>
    <contour>
      <point x="76" y="819" type="curve"/>
      <point x="76" y="830"/>
      <point x="72" y="847"/>
      <point x="47" y="847" type="curve"/>
      <point x="21" y="847"/>
      <point x="17" y="830"/>
      <point x="17" y="819" type="curve"/>
      <point x="17" y="804"/>
      <point x="26" y="798"/>
      <point x="35" y="798" type="curve"/>
      <point x="43" y="798"/>
      <point x="48" y="801"/>
      <point x="48" y="805" type="curve"/>
      <point x="58" y="805" type="line"/>
      <point x="58" y="789"/>
      <point x="42" y="774"/>
      <point x="30" y="774" type="curve"/>
      <point x="30" y="763" type="line"/>
      <point x="53" y="763"/>
      <point x="76" y="792"/>
    </contour>
  </outline>
</glyph>
